<svg id="Layer_1" data-name="Layer 1" xmlns="http://www.w3.org/2000/svg" xmlns:xlink="http://www.w3.org/1999/xlink" viewBox="0 0 339.16 339.16"><defs><style>.cls-1{fill:url(#linear-gradient);}.cls-2{fill:none;}.cls-3{fill:#fff;}.cls-4{fill:#d3f1ea;}.cls-5{fill:#21bb94;}.cls-6{fill:#90ddc9;}.cls-7{fill:#16b297;}</style><linearGradient id="linear-gradient" x1="278.59" y1="299.49" x2="60.57" y2="39.67" gradientUnits="userSpaceOnUse"><stop offset="0" stop-color="#d7c1ff"/><stop offset="0.11" stop-color="#ddcbff"/><stop offset="0.37" stop-color="#e7dcff"/><stop offset="0.65" stop-color="#ede6ff"/><stop offset="1" stop-color="#efe9ff"/></linearGradient></defs><circle class="cls-1" cx="169.58" cy="169.58" r="169.58"/><path class="cls-2" d="M357.32,387.4l1,.63Z" transform="translate(-130.42 -130.42)"/><path class="cls-2" d="M347.52,382l1.2.57Z" transform="translate(-130.42 -130.42)"/><path class="cls-2" d="M350,383.16l1.16.59Z" transform="translate(-130.42 -130.42)"/><path class="cls-2" d="M359.89,389.11l.8.55Z" transform="translate(-130.42 -130.42)"/><path class="cls-2" d="M354.84,385.86c.36.22.72.42,1.08.65C355.56,386.28,355.2,386.08,354.84,385.86Z" transform="translate(-130.42 -130.42)"/><path class="cls-2" d="M352.4,384.45l1.13.63Z" transform="translate(-130.42 -130.42)"/><path class="cls-3" d="M240.3,299.34c-.34-.2-.67-.4-1-.59s-1-.53-1.5-.77l.12-.46a23.2,23.2,0,0,1,3.41.71c.76.22,1.51.47,2.26.75a109.38,109.38,0,0,1,18.1-.1,99.26,99.26,0,0,0,11.7.72c-.22-.17-.42-.35-.64-.53-.66-.52-1.35-1-2.06-1.51-.39-.27-.79-.54-1.2-.79-.56-.37-1.14-.71-1.72-1s-1.19-.65-1.8-.93l.13-.45a24.46,24.46,0,0,1,4,1.08c.34.11.66.24,1,.36l1,.4c.64.28,1.28.57,1.91.89.31.15.61.31.9.47s.65.35,1,.54l.91.55.89.57.44.32c12.88-.47,29.94-3.48,38.1-15.18a72.66,72.66,0,0,0-16.5-14.08,70.92,70.92,0,0,0-23.33-9.1l2.08-5.17c17.71,3.64,31.13,12.23,43.08,26.34l0,0a67,67,0,0,0,21.31-.84c0-.59,0-1,0-1,0-.18,0-.37,0-.56,0-1.27.11-2.53.2-3.77a29.68,29.68,0,0,1,.51-3.65c.13-.59.26-1.19.42-1.77.08-.3.16-.59.25-.88s.17-.57.27-.86a34.79,34.79,0,0,1,1.29-3.36,25.84,25.84,0,0,1,1.66-3.17l.43.19c-.14.56-.27,1.13-.38,1.7s-.21,1.13-.3,1.7c-.18,1.14-.32,2.27-.4,3.41a39.2,39.2,0,0,0,0,6.68c0,.27.05.55.1.82l.15.8c.06.27.13.53.19.79s.14.52.21.78.14.51.23.82a41.35,41.35,0,0,0,8.5-3.79s1.66-1.14,4.24-3.1c-.12-.59-.22-1.21-.33-2a22.44,22.44,0,0,1,.24-7.58c.07-.3.12-.59.2-.89s.14-.59.23-.88l.25-.87.28-.86.3-.85a35.27,35.27,0,0,1,1.42-3.28c.26-.53.54-1,.83-1.56s.6-1,.94-1.51l.42.21c-.16.54-.31,1.11-.44,1.66s-.25,1.12-.36,1.68c-.22,1.12-.41,2.24-.53,3.36s-.22,2.23-.25,3.33c0,.28,0,.55,0,.83V265c0,.54,0,1.08.06,1.62a15.47,15.47,0,0,0,.68,3.71A117.72,117.72,0,0,0,382,253.06l.29-.4.69-.88.31-.41h0a77.92,77.92,0,0,1,13.57-13.27l-1.6,0c-6.51.14-12.13.27-18.44.93a74.55,74.55,0,0,0-16.57,4A70.36,70.36,0,0,0,345.8,250a54.38,54.38,0,0,0-7.09,5.32,68.42,68.42,0,0,0-10.75,12l-2.46-3a72.71,72.71,0,0,1,10.73-11.83,60.13,60.13,0,0,1,10.12-7.25A75.34,75.34,0,0,1,359,239.51a79,79,0,0,1,17.4-4.14c3.18-.33,6.17-.53,9.17-.67-10.8-2.12-21.69-3.37-32.37-1.87a92.29,92.29,0,0,0-17.68,3.92,49.2,49.2,0,0,0-8,3.56,42.06,42.06,0,0,0-4.72,3.08q1,2.7,1.73,5.49l-4.76,2.87-.3-1.12a72.72,72.72,0,0,0-3.92-10.93,67.2,67.2,0,0,0-6.71-11.57,73.08,73.08,0,0,0-19.62-18.48c-11.92-7.77-26.7-13-43.23-15.48A119.44,119.44,0,0,1,268.24,206c12.1,8.38,21.4,20.24,25.73,32.56.53,1.54,1,3.07,1.38,4.62L292,245.06c-.17-.75-.36-1.51-.57-2.27-.41-1.47-.9-2.93-1.46-4.39-4.26-11.08-12.8-21.69-23.81-29.31a117.49,117.49,0,0,0-22.69-12A132.14,132.14,0,0,1,257.57,213a18.39,18.39,0,0,0,2.23-3.43l.47.09a12.06,12.06,0,0,1-.27,2.47,15,15,0,0,1-.7,2.41l-.21.54A89.63,89.63,0,0,1,268,230.41c.19-.22.38-.45.57-.7a25,25,0,0,0,2-3.75c.3-.71.57-1.45.82-2.2.12-.38.24-.76.34-1.14s.21-.78.3-1.16h.47c.1.41.16.82.23,1.24s.09.82.12,1.24a24.28,24.28,0,0,1,0,2.83,19.41,19.41,0,0,1-1.1,5.15,14.83,14.83,0,0,1-1.46,3.18l-.24.33.3.84c.51.4,1,.8,1.51,1.22,1,.86,2,1.75,2.92,2.67l-1.88,1.9L271,243.94l-.37-.35a52.14,52.14,0,0,0-8.5-6.6,78.32,78.32,0,0,0-14.68-7.18A95.88,95.88,0,0,0,220.6,224c-12.81-.8-22.39.33-29.82,2.1a131.25,131.25,0,0,1,39.06,7.38q3,1,5.81,2.21a73.88,73.88,0,0,1,20.45,12.53l-1.67,3.48h0c-6.61-6.11-15.53-11.21-25.79-14.73-2.1-.72-4.14-1.37-6.14-2a129.91,129.91,0,0,0-35.55-5.34c5.5,1.19,14.88,4.06,22.63,10.69,0,0,1.06.71,2.55,1.89.43-.19.85-.39,1.27-.61l.59-.3a34.7,34.7,0,0,0,5-3.31l.35.32a25,25,0,0,1-3.94,4.88l-.38.35-.21.19-.41.36a28.9,28.9,0,0,1,5.76,6.58s1.51,2.1,4,4.86l.55-.26.31-.17a20.61,20.61,0,0,0,3.21-2.1,17.84,17.84,0,0,0,4.9-6.13l.44.15c-.07.34-.14.68-.23,1-.05.17-.09.34-.14.51l-.16.5a17.81,17.81,0,0,1-.8,2,18.17,18.17,0,0,1-2.35,3.63c-.47.56-1,1.1-1.49,1.61s-1.08,1-1.65,1.44h0l-.3.22c3.45,3.5,8,7.36,12.89,9.35a58.24,58.24,0,0,1,6.86-1.38l2.17,5.11a55.22,55.22,0,0,0-21.38,7,59.73,59.73,0,0,0-25.58,30,46.45,46.45,0,0,0-2.59,9.77,64.88,64.88,0,0,1,4.48-7.23A67.8,67.8,0,0,1,218,295.75a57.49,57.49,0,0,1,18.84-9.43,71.89,71.89,0,0,1,11.73-2.13c3.55-.37,7.08-.55,10.5-.66l3.46-.1a97.56,97.56,0,0,0,10.11-.57,88.19,88.19,0,0,0,9.68-1.79l2.54,3.21a100.24,100.24,0,0,1-11.75,2.26,104.13,104.13,0,0,1-10.5.6l-3.42.09c-2.54.09-5.14.21-7.76.42a73,73,0,0,0-13.6,2.24,53.78,53.78,0,0,0-17.62,8.84,63.87,63.87,0,0,0-13.92,14q-1.29,1.8-2.44,3.69C208,311.69,218.75,302.13,240.3,299.34Z" transform="translate(-130.42 -130.42)"/><path class="cls-4" d="M250.69,217.58a2.49,2.49,0,0,0,.85-.18,11.47,11.47,0,0,0,2.56-1.19c.14-.09.28-.2.42-.3l.21-.15.2-.17a10.41,10.41,0,0,0,.81-.68l.4-.37.39-.38.37-.39.37-.42c.1-.11.2-.24.3-.36a132.14,132.14,0,0,0-14.13-15.87c-.66-.27-1.31-.54-2-.8A89.86,89.86,0,0,1,250.69,217.58Z" transform="translate(-130.42 -130.42)"/><path class="cls-4" d="M258.8,215.71l-.29.58c-.11.19-.22.37-.32.56a12.94,12.94,0,0,1-.73,1.09l-.19.27-.21.26c-.14.17-.27.35-.42.51l-.44.51a11.79,11.79,0,0,1-3.09,2.67l-1.13.57c.25,1.16.48,2.29.71,3.4a93.55,93.55,0,0,1,12.69,6.73,14.31,14.31,0,0,0,2.64-2.45,89.63,89.63,0,0,0-8.93-15.34l0,.06Z" transform="translate(-130.42 -130.42)"/><path class="cls-4" d="M213.56,244.77c-.21.17-.43.32-.65.48-.43.33-.89.61-1.34.91s-.93.57-1.41.82c-1,.51-1.92,1.08-2.93,1.53a9.7,9.7,0,0,1-1.57.54l-.41.09-.31.05c2.28,3.12,4.55,6.15,7.07,9a10.06,10.06,0,0,0,3.63-.11l.22-.06c.62-.15,1.25-.28,1.88-.4a23.53,23.53,0,0,0,3.74-.94c.6-.22,1.2-.46,1.78-.72.29-.13.58-.28.86-.42-2.48-2.76-4-4.86-4-4.86a28.9,28.9,0,0,0-5.76-6.58,1.54,1.54,0,0,1-.19.17Z" transform="translate(-130.42 -130.42)"/><path class="cls-4" d="M226.39,257.94a26.84,26.84,0,0,1-3.35,2.15c-1.28.69-2.57,1.38-3.91,2a13.93,13.93,0,0,1-2.06.71l-.41.1a43.89,43.89,0,0,0,12,7.62,7,7,0,0,0,.77.26c1.28-.58,2.58-1.12,3.9-1.61.7-.26,1.41-.51,2.12-.75,1.25-.41,2.51-.76,3.79-1.09C234.41,265.3,229.84,261.44,226.39,257.94Z" transform="translate(-130.42 -130.42)"/><path class="cls-4" d="M198.07,240c.86,1.07,1.69,2.16,2.51,3.25,0,0,1.56,1.35,6.77.61a9.91,9.91,0,0,0,1.33-.32c.46-.13.9-.3,1.35-.45s.89-.33,1.33-.53l.76-.33c-1.49-1.18-2.55-1.89-2.55-1.89-7.75-6.63-17.13-9.5-22.63-10.69h-.07A58.59,58.59,0,0,1,198.07,240Z" transform="translate(-130.42 -130.42)"/><path class="cls-4" d="M321.56,282.4l.59.7a81,81,0,0,1,5.31,7.17l.22.33a57.32,57.32,0,0,0,9.66-.76,53.44,53.44,0,0,0,6.51-1.51,22.86,22.86,0,0,1-1-6.77A67,67,0,0,1,321.56,282.4Z" transform="translate(-130.42 -130.42)"/><path class="cls-4" d="M278.09,299.54l.43.3c.3.2.58.43.86.64s.56.45.84.67l.82.7.81.71.8.73c.28.24.53.49.8.74s.53.51.77.77a13,13,0,0,1,1.48,1.83,25.24,25.24,0,0,1,2.94,5.07A59.13,59.13,0,0,0,307.37,307c6.28-2.93,10.46-7.06,12.44-12.27.08-.2.25-.77.64-2.28l.36-1.41.15-.77c-.93-1.29-1.9-2.54-2.92-3.77-.61-.73-1.23-1.45-1.85-2.15C308,296.06,291,299.07,278.09,299.54Z" transform="translate(-130.42 -130.42)"/><path class="cls-4" d="M243.57,299l1.06.4.81.35.8.36.79.4c.27.13.53.28.79.42s.51.3.77.45l.38.23.38.24c.5.32,1,.67,1.48,1,1,.71,2,1.41,2.92,2.19a10.69,10.69,0,0,1,1,1,24,24,0,0,1,2.82,2.86c1.61.14,3.23.3,4.85.49,2.48.29,5,.68,7.39,1.05a111.33,111.33,0,0,0,12.38,1.46,11,11,0,0,0-1.15-3.42l-.51-.81a23.25,23.25,0,0,0-2.19-3.17,39.81,39.81,0,0,0-5-4.89,99.26,99.26,0,0,1-11.7-.72A109.38,109.38,0,0,0,243.57,299Z" transform="translate(-130.42 -130.42)"/><path class="cls-4" d="M364.35,270.29s0,.11,0,.16a20.82,20.82,0,0,0,1.47,3.23,9.46,9.46,0,0,0,.75,1.05c3.66-3.85,6.46-8.23,9.39-12.83,1.86-2.92,3.78-5.93,6-8.84A117.72,117.72,0,0,1,364.35,270.29Z" transform="translate(-130.42 -130.42)"/><path class="cls-4" d="M383,251.78l.33-.42h0Z" transform="translate(-130.42 -130.42)"/><path class="cls-4" d="M347.68,280.27l.18.65a16.31,16.31,0,0,0,2.24,5.21c3.72-1.69,8.45-3.86,11.94-7.42-.21-.52-.82-2.14-1-2.67-.3-1.12-.5-1.85-.66-2.66-2.58,2-4.24,3.1-4.24,3.1A41.35,41.35,0,0,1,347.68,280.27Z" transform="translate(-130.42 -130.42)"/><path class="cls-4" d="M213.3,312.72a96.75,96.75,0,0,1,25.65-4.3c3.65-.14,7.37-.14,11.14,0a6.42,6.42,0,0,0-.73-1.58,13.51,13.51,0,0,0-1-1.15c-.38-.38-.75-.77-1.15-1.13l-.29-.28-.3-.27-.6-.53-.62-.53-.63-.52-.65-.51-.65-.49c-.89-.66-1.81-1.27-2.76-1.85l-.43-.24c-21.55,2.79-32.34,12.35-36.48,17.12h0A73.86,73.86,0,0,1,213.3,312.72Z" transform="translate(-130.42 -130.42)"/><path class="cls-5" d="M342.6,379.9l1.25.47Z" transform="translate(-130.42 -130.42)"/><path class="cls-5" d="M345.07,380.88l1.22.52Z" transform="translate(-130.42 -130.42)"/><path class="cls-5" d="M335,377.58l1.33.33Z" transform="translate(-130.42 -130.42)"/><path class="cls-5" d="M332.46,377l1.35.28Z" transform="translate(-130.42 -130.42)"/><path class="cls-5" d="M329.85,376.57l1.37.22Z" transform="translate(-130.42 -130.42)"/><path class="cls-5" d="M340.11,379l1.27.43Z" transform="translate(-130.42 -130.42)"/><path class="cls-5" d="M337.59,378.25l1.3.38Z" transform="translate(-130.42 -130.42)"/><path class="cls-5" d="M324.49,376l1.44.12Z" transform="translate(-130.42 -130.42)"/><path class="cls-5" d="M327.19,376.22l1.41.17Z" transform="translate(-130.42 -130.42)"/><path class="cls-5" d="M382,253.06c.33-.43.66-.85,1-1.28l-.69.88Z" transform="translate(-130.42 -130.42)"/><path class="cls-3" d="M351.49,380.36c-1.84-1.87-3.69-3.74-5.56-5.59-1.55-1.53-3.12-3-4.74-4.52l-.12-.11c-1.59-1.45-3.19-2.88-4.79-4.31-7.35-6.54-14.9-12.75-23.62-18-10.77-6.45-22.3-10.2-33.34-10.84-1.68-.1-3.33-.15-5-.15-10.54,0-19.79,2-26.42,5.88a29.47,29.47,0,0,0-6.73,5.24h0c-3.27,6.38-1.39,14.81,0,17.07,14.54,23.59,43.38,14.09,64.36,11.5,2.88-.35,5.78-.58,8.68-.69q4-.17,8.12,0l1.45.07h.12l.55,0,1.44.12,1.26.13,1.41.17c.42.05.83.11,1.25.18l1.37.22,1.24.23,1.35.28,1.23.28,1.33.33,1.22.34,1.3.38,1.22.39,1.27.43c.41.14.81.3,1.22.45l1.25.47,1.22.51,1.22.52.38.17c.29.12.57.26.85.39l1.2.57c.42.2.83.41,1.25.63l1.16.59,1.27.7,1.13.63c.44.25.88.52,1.31.78s.72.42,1.08.65l1.4.89,1,.63c.53.35,1.05.72,1.58,1.08l.8.55c.8.55,1.59,1.13,2.39,1.72C359,387.91,355.23,384.14,351.49,380.36Z" transform="translate(-130.42 -130.42)"/><path class="cls-4" d="M365.05,393.06l.12.07Z" transform="translate(-130.42 -130.42)"/><path class="cls-4" d="M365,392.93c-.63-.51-1.26-1-1.87-1.55-.8-.59-1.59-1.17-2.39-1.72l-.8-.55c-.53-.36-1.05-.73-1.58-1.08l-1-.63-1.4-.89c-.36-.23-.72-.43-1.08-.65s-.87-.53-1.31-.78l-1.13-.63-1.27-.7-1.16-.59c-.42-.22-.83-.43-1.25-.63l-1.2-.57-.86-.39-.37-.17-1.22-.52-1.22-.51-1.25-.47c-.41-.15-.81-.31-1.22-.45l-1.27-.43-1.22-.39-1.3-.38-1.22-.34-1.33-.33-1.23-.28-1.35-.28-1.24-.23-1.37-.22c-.42-.07-.83-.13-1.25-.18l-1.41-.17-1.26-.13-1.44-.12c-.7,0-1.4-.09-2.12-.12q-4.06-.15-8.12,0c-2.9.11-5.8.34-8.68.69-21,2.59-49.82,12.09-64.36-11.5-1.39-2.26-3.27-10.69,0-17.07h0a22.94,22.94,0,0,0-5.57,9.75c-.22,5.23.15,8.84,1.12,11.31,3.27,8.33,8.92,15.61,17.8,18.16,11.81,3.38,24.75,1.2,36.2-1.84,11-2.91,22.19-5.23,33.29-5.2a68.65,68.65,0,0,1,11.36.94c1.75.3,3.5.69,5.23,1.15l.89.22a82.79,82.79,0,0,1,12,4.43c2,.91,3.95,1.89,5.88,2.92l1.2.68c1.33.76,2.8,1.67,4.46,2.55l.12.07.11.06Z" transform="translate(-130.42 -130.42)"/><path class="cls-4" d="M348.72,382.53c.42.2.83.41,1.25.63C349.55,382.94,349.14,382.73,348.72,382.53Z" transform="translate(-130.42 -130.42)"/><path class="cls-4" d="M355.92,386.51l1.4.89Z" transform="translate(-130.42 -130.42)"/><path class="cls-4" d="M347.52,382c-.28-.13-.56-.27-.85-.39h0Z" transform="translate(-130.42 -130.42)"/><path class="cls-4" d="M363.08,391.38c-.8-.59-1.59-1.17-2.39-1.72C361.49,390.21,362.28,390.79,363.08,391.38Z" transform="translate(-130.42 -130.42)"/><path class="cls-4" d="M351.13,383.75l1.27.7Z" transform="translate(-130.42 -130.42)"/><path class="cls-4" d="M353.53,385.08c.44.25.88.52,1.31.78C354.41,385.6,354,385.33,353.53,385.08Z" transform="translate(-130.42 -130.42)"/><path class="cls-4" d="M358.31,388c.53.35,1.05.72,1.58,1.08C359.36,388.75,358.84,388.38,358.31,388Z" transform="translate(-130.42 -130.42)"/><path class="cls-4" d="M333.81,377.3l1.23.28Z" transform="translate(-130.42 -130.42)"/><path class="cls-4" d="M336.37,377.91l1.22.34Z" transform="translate(-130.42 -130.42)"/><path class="cls-4" d="M323.94,375.93h-.12l-1.45-.07c.72,0,1.42.08,2.12.12Z" transform="translate(-130.42 -130.42)"/><path class="cls-4" d="M331.22,376.79l1.24.23Z" transform="translate(-130.42 -130.42)"/><path class="cls-4" d="M325.93,376.09l1.26.13Z" transform="translate(-130.42 -130.42)"/><path class="cls-4" d="M346.67,381.57l-.38-.17.37.17Z" transform="translate(-130.42 -130.42)"/><path class="cls-4" d="M343.85,380.37l1.22.51Z" transform="translate(-130.42 -130.42)"/><path class="cls-4" d="M328.6,376.39c.42.05.83.11,1.25.18C329.43,376.5,329,376.44,328.6,376.39Z" transform="translate(-130.42 -130.42)"/><path class="cls-4" d="M341.38,379.45c.41.14.81.3,1.22.45C342.19,379.75,341.79,379.59,341.38,379.45Z" transform="translate(-130.42 -130.42)"/><path class="cls-4" d="M338.89,378.63l1.22.39Z" transform="translate(-130.42 -130.42)"/><path class="cls-6" d="M365.28,393.19l-.11-.06-.12-.07c-1.66-.88-3.13-1.79-4.46-2.55l-1.2-.68c-1.93-1-3.89-2-5.88-2.92a82.79,82.79,0,0,0-12-4.43l-.89-.22c-1.73-.46-3.48-.85-5.23-1.15a68.65,68.65,0,0,0-11.36-.94c-11.1,0-22.33,2.29-33.29,5.2-11.45,3-24.39,5.22-36.2,1.84-8.88-2.55-14.53-9.83-17.8-18.16-1-2.47-1.34-6.08-1.12-11.31-.09.33-.18.66-.26,1a26.51,26.51,0,0,0-.59,7.36,30.81,30.81,0,0,0,4.8,15.45c5.06,7.67,11.78,12.68,20,14.9a45.49,45.49,0,0,0,20.18.41c1.31-.24,3.38-.74,6-1.38,7.47-1.81,20-4.84,33.25-6.12,11-1.07,22.55-.43,35.17,1.34a57.39,57.39,0,0,1,11.57,2.85Z" transform="translate(-130.42 -130.42)"/><path class="cls-5" d="M365.28,393.19a2.55,2.55,0,0,1-.33-.4l-1.87-1.41c.61.52,1.24,1,1.87,1.55Z" transform="translate(-130.42 -130.42)"/><path class="cls-7" d="M244,406.44l-1-.23-.94-.23a36.63,36.63,0,0,1-3.53-1.07c-.28-.11-.56-.2-.82-.32s-.53-.23-.79-.34c-.51-.25-1-.5-1.48-.78a14.11,14.11,0,0,1-2.58-1.93,15.29,15.29,0,0,1-2.1-2.47,21.85,21.85,0,0,1-1.72-3c-.52-1.08-1-2.23-1.43-3.43-.22-.6-.43-1.21-.65-1.84l-.63-1.93a9.46,9.46,0,0,0-.68,2,14.41,14.41,0,0,0-.34,2.07,15.91,15.91,0,0,0,.17,4.24,15,15,0,0,0,1.39,4.18A13.46,13.46,0,0,0,229.6,405a13.25,13.25,0,0,0,3.85,2.53,14.12,14.12,0,0,0,2.14.71,15.16,15.16,0,0,0,2.18.34,15.5,15.5,0,0,0,4.26-.26c.34-.06.68-.15,1-.24s.66-.19,1-.31.65-.24,1-.37.64-.29,1-.46c-.34-.1-.68-.18-1-.26Z" transform="translate(-130.42 -130.42)"/><path class="cls-7" d="M230.75,414.88c-.44-.19-.88-.36-1.3-.52l-.62-.27a5.56,5.56,0,0,1-.61-.25c-.19-.1-.39-.18-.58-.27l-.15-.06-.13-.07-.28-.14-.27-.14-.14-.06-.13-.08-.51-.28a13.75,13.75,0,0,1-1.8-1.28,10.25,10.25,0,0,1-1.46-1.55,13.78,13.78,0,0,1-1.22-2,26.28,26.28,0,0,1-1-2.42c-.16-.44-.32-.89-.47-1.36l-.48-1.47a5.93,5.93,0,0,0-.84,1.38,9.12,9.12,0,0,0-.53,1.52,9.63,9.63,0,0,0-.25,3.27,9.43,9.43,0,0,0,1,3.34,9.31,9.31,0,0,0,2.22,2.85,10.23,10.23,0,0,0,3,1.79,10,10,0,0,0,1.64.45l.41.08.21,0,.2,0,.82.06a7.3,7.3,0,0,0,.81,0l.8,0c.53-.06,1-.14,1.56-.25a14.72,14.72,0,0,0,1.51-.47,10.6,10.6,0,0,0,1.44-.7,14.53,14.53,0,0,0-1.44-.62C231.65,415.23,231.2,415,230.75,414.88Z" transform="translate(-130.42 -130.42)"/><path class="cls-7" d="M367.23,281.51c5.77-4.94,9.59-10.94,13.28-16.74,1.89-3,3.83-6,6-8.87a73.07,73.07,0,0,1,19.16-17.45l5.33-3.38-7.71-1.85c-16.56-4-33.68-8.08-50.81-5.68-10.75,1.5-21.94,3.89-31.68,10.73A72.81,72.81,0,0,0,313.22,225a78.56,78.56,0,0,0-21-19.83C276.74,195.1,256.84,189,234.64,187.6l-5.43-.35,3,4.51c9.86,14.59,12.75,24.1,14.51,32.13a101.2,101.2,0,0,0-25.83-5.27c-11.45-.71-26.77-.65-43.7,6.21L172,227l4.95,2.7c6.5,3.55,13.15,8.91,17,13.66,1.95,2.45,3.81,5,5.61,7.49,2.49,3.43,5,6.9,7.87,10.2.55.63,1.11,1.26,1.68,1.87a51.42,51.42,0,0,0,14.37,11A63.94,63.94,0,0,0,207,288.1c-9.14,11-14.33,24.58-13.89,36.24l.18,4.9,1-.73,3-2.08c.74-.52,1.5-1,2.27-1.52a67,67,0,0,1,15.4-7.11,91.48,91.48,0,0,1,24.23-4,142.86,142.86,0,0,1,16.74.35l1.87.16c1.34.12,2.7.26,4.05.42,2.38.28,4.83.66,7.19,1,6.43,1,13.08,2,19.88,1.34a64.86,64.86,0,0,0,20.74-5.2c7.58-3.54,12.68-8.66,15.18-15.21,0-.1.07-.21.12-.35a91,91,0,0,1,11.54,34.59,130.16,130.16,0,0,1,.61,27.27c0,.51-.1,1-.14,1.55a151.5,151.5,0,0,0-21.69-16.16,87,87,0,0,0-16.88-7.84A72,72,0,0,0,279.62,332c-13.56-.79-25.7,1.49-34.2,6.4-10.76,6.23-16.32,16.17-15.65,28a35.74,35.74,0,0,0,5.62,17.93c5.75,8.72,13.44,14.44,22.86,17a45.51,45.51,0,0,0,11.84,1.51,58.42,58.42,0,0,0,10.56-1c1.45-.27,3.58-.78,6.27-1.43,7.34-1.78,19.63-4.76,32.54-6,10.65-1,21.77-.4,34,1.31,10.44,1.47,16.3,4.59,25.08,6.79a23.14,23.14,0,0,0,18.7-1.94,13.75,13.75,0,0,0,5.7-6.7c1.6-4.25-.13-10.61-3.89-16.1-5.39-7.89-14.87-14-26.68-17.09a75.19,75.19,0,0,0-30-1.47c.07-.87.15-1.75.2-2.61a134.3,134.3,0,0,0-.78-26.39,97.09,97.09,0,0,0-10.92-34.29,62,62,0,0,0,7.37-.77A59.46,59.46,0,0,0,367.23,281.51Zm-26,88.74c1.62,1.48,3.19,3,4.74,4.52,1.87,1.85,3.72,3.72,5.56,5.59,3.74,3.78,7.5,7.55,11.59,11l1.87,1.41a2.55,2.55,0,0,0,.33.4l.44.36a57.39,57.39,0,0,0-11.57-2.85c-12.62-1.77-24.12-2.41-35.17-1.34-13.27,1.28-25.78,4.31-33.25,6.12-2.61.64-4.68,1.14-6,1.38a45.49,45.49,0,0,1-20.18-.41c-8.19-2.22-14.91-7.23-20-14.9a30.81,30.81,0,0,1-4.8-15.45,26.51,26.51,0,0,1,.59-7.36c.08-.34.17-.67.26-1a22.94,22.94,0,0,1,5.57-9.75,29.47,29.47,0,0,1,6.73-5.24c6.63-3.84,15.88-5.88,26.42-5.88,1.63,0,3.28.05,5,.15,11,.64,22.57,4.39,33.34,10.84,8.72,5.22,16.27,11.43,23.62,18,1.6,1.43,3.2,2.86,4.79,4.31ZM327.68,290.6l-.22-.33a81,81,0,0,0-5.31-7.17l-.59-.7,0,0c-11.95-14.11-25.37-22.7-43.08-26.34l-2.08,5.17a70.92,70.92,0,0,1,23.33,9.1,72.66,72.66,0,0,1,16.5,14.08c.62.7,1.24,1.42,1.85,2.15,1,1.23,2,2.48,2.92,3.77l-.15.77-.36,1.41c-.39,1.51-.56,2.08-.64,2.28-2,5.21-6.16,9.34-12.44,12.27a59.13,59.13,0,0,1-18.73,4.69,25.24,25.24,0,0,0-2.94-5.07,13,13,0,0,0-1.48-1.83c-.24-.26-.51-.52-.77-.77s-.52-.5-.8-.74l-.8-.73-.81-.71-.82-.7c-.28-.22-.55-.45-.84-.67s-.56-.44-.86-.64l-.43-.3-.44-.32-.89-.57-.91-.55c-.32-.19-.64-.37-1-.54s-.59-.32-.9-.47c-.63-.32-1.27-.61-1.91-.89l-1-.4c-.33-.12-.65-.25-1-.36a24.46,24.46,0,0,0-4-1.08l-.13.45q.92.42,1.8.93c.58.32,1.16.66,1.72,1,.41.25.81.52,1.2.79.71.48,1.4,1,2.06,1.51.22.18.42.36.64.53a39.81,39.81,0,0,1,5,4.89,23.25,23.25,0,0,1,2.19,3.17l.51.81a11,11,0,0,1,1.15,3.42,111.33,111.33,0,0,1-12.38-1.46c-2.41-.37-4.91-.76-7.39-1.05-1.62-.19-3.24-.35-4.85-.49a24,24,0,0,0-2.82-2.86,10.69,10.69,0,0,0-1-1c-.95-.78-2-1.48-2.92-2.19-.49-.34-1-.69-1.48-1l-.38-.24-.38-.23c-.26-.15-.51-.31-.77-.45s-.52-.29-.79-.42l-.79-.4-.8-.36-.81-.35-1.06-.4c-.75-.28-1.5-.53-2.26-.75a23.2,23.2,0,0,0-3.41-.71l-.12.46c.5.24,1,.49,1.5.77s.68.39,1,.59l.43.24c1,.58,1.87,1.19,2.76,1.85l.65.49.65.51.63.52.62.53.6.53.3.27.29.28c.4.36.77.75,1.15,1.13a13.51,13.51,0,0,1,1,1.15,6.42,6.42,0,0,1,.73,1.58c-3.77-.14-7.49-.14-11.14,0a96.75,96.75,0,0,0-25.65,4.3,73.86,73.86,0,0,0-9.48,3.74h0q1.16-1.89,2.44-3.69a63.87,63.87,0,0,1,13.92-14,53.78,53.78,0,0,1,17.62-8.84,73,73,0,0,1,13.6-2.24c2.62-.21,5.22-.33,7.76-.42l3.42-.09a104.13,104.13,0,0,0,10.5-.6,100.24,100.24,0,0,0,11.75-2.26l-2.54-3.21a88.19,88.19,0,0,1-9.68,1.79,97.56,97.56,0,0,1-10.11.57l-3.46.1c-3.42.11-7,.29-10.5.66a71.89,71.89,0,0,0-11.73,2.13A57.49,57.49,0,0,0,218,295.75a67.8,67.8,0,0,0-14.73,14.86,64.88,64.88,0,0,0-4.48,7.23,46.45,46.45,0,0,1,2.59-9.77,59.73,59.73,0,0,1,25.58-30,55.22,55.22,0,0,1,21.38-7l-2.17-5.11a58.24,58.24,0,0,0-6.86,1.38c-1.28.33-2.54.68-3.79,1.09-.71.24-1.42.49-2.12.75-1.32.49-2.62,1-3.9,1.61a7,7,0,0,1-.77-.26,43.89,43.89,0,0,1-12-7.62l.41-.1a13.93,13.93,0,0,0,2.06-.71c1.34-.58,2.63-1.27,3.91-2a26.84,26.84,0,0,0,3.35-2.15l.3-.22h0q.85-.69,1.65-1.44c.52-.51,1-1,1.49-1.61A18.17,18.17,0,0,0,232.2,251a17.81,17.81,0,0,0,.8-2l.16-.5c.05-.17.09-.34.14-.51.09-.34.16-.68.23-1l-.44-.15a17.84,17.84,0,0,1-4.9,6.13,20.61,20.61,0,0,1-3.21,2.1l-.31.17-.55.26c-.28.14-.57.29-.86.42-.58.26-1.18.5-1.78.72a23.53,23.53,0,0,1-3.74.94c-.63.12-1.26.25-1.88.4l-.22.06a10.06,10.06,0,0,1-3.63.11c-2.52-2.84-4.79-5.87-7.07-9l.31-.05.41-.09a9.7,9.7,0,0,0,1.57-.54c1-.45,2-1,2.93-1.53.48-.25,1-.54,1.41-.82s.91-.58,1.34-.91c.22-.16.44-.31.65-.48l.62-.51a1.54,1.54,0,0,0,.19-.17l.41-.36.21-.19.38-.35a25,25,0,0,0,3.94-4.88L219,238a34.7,34.7,0,0,1-5,3.31l-.59.3c-.42.22-.84.42-1.27.61l-.76.33c-.44.2-.89.36-1.33.53s-.89.32-1.35.45a9.91,9.91,0,0,1-1.33.32c-5.21.74-6.77-.61-6.77-.61-.82-1.09-1.65-2.18-2.51-3.25a58.59,58.59,0,0,0-11.2-10.35h.07A129.91,129.91,0,0,1,222.49,235c2,.59,4,1.24,6.14,2,10.26,3.52,19.18,8.62,25.79,14.73h0l1.67-3.48a73.88,73.88,0,0,0-20.45-12.53q-2.84-1.19-5.81-2.21a131.25,131.25,0,0,0-39.06-7.38c7.43-1.77,17-2.9,29.82-2.1a95.88,95.88,0,0,1,26.86,5.86A78.32,78.32,0,0,1,262.14,237a52.14,52.14,0,0,1,8.5,6.6l.37.35,1.88-1.89,1.88-1.9c-.93-.92-1.91-1.81-2.92-2.67-.49-.42-1-.82-1.51-1.22l-.3-.84.24-.33a14.83,14.83,0,0,0,1.46-3.18,19.41,19.41,0,0,0,1.1-5.15,24.28,24.28,0,0,0,0-2.83c0-.42-.07-.83-.12-1.24s-.13-.83-.23-1.24H272c-.09.38-.18.78-.3,1.16s-.22.76-.34,1.14c-.25.75-.52,1.49-.82,2.2a25,25,0,0,1-2,3.75c-.19.25-.38.48-.57.7a14.31,14.31,0,0,1-2.64,2.45,93.55,93.55,0,0,0-12.69-6.73c-.23-1.11-.46-2.24-.71-3.4l1.13-.57a11.79,11.79,0,0,0,3.09-2.67l.44-.51c.15-.16.28-.34.42-.51l.21-.26.19-.27a12.94,12.94,0,0,0,.73-1.09c.1-.19.21-.37.32-.56l.29-.58.26-.58,0-.06.21-.54a15,15,0,0,0,.7-2.41,12.06,12.06,0,0,0,.27-2.47l-.47-.09a18.39,18.39,0,0,1-2.23,3.43c-.1.12-.2.25-.3.36l-.37.42-.37.39-.39.38-.4.37a10.41,10.41,0,0,1-.81.68l-.2.17-.21.15c-.14.1-.28.21-.42.3a11.47,11.47,0,0,1-2.56,1.19,2.49,2.49,0,0,1-.85.18,89.86,89.86,0,0,0-9.23-21.26c.67.26,1.32.53,2,.8a117.49,117.49,0,0,1,22.69,12c11,7.62,19.55,18.23,23.81,29.31.56,1.46,1.05,2.92,1.46,4.39.21.76.4,1.52.57,2.27l3.38-1.84c-.39-1.55-.85-3.08-1.38-4.62-4.33-12.32-13.63-24.18-25.73-32.56A119.44,119.44,0,0,0,246,194.17c16.53,2.44,31.31,7.71,43.23,15.48a73.08,73.08,0,0,1,19.62,18.48,67.2,67.2,0,0,1,6.71,11.57,72.72,72.72,0,0,1,3.92,10.93l.3,1.12,4.76-2.87q-.76-2.79-1.73-5.49a42.06,42.06,0,0,1,4.72-3.08,49.2,49.2,0,0,1,8-3.56,92.29,92.29,0,0,1,17.68-3.92c10.68-1.5,21.57-.25,32.37,1.87-3,.14-6,.34-9.17.67a79,79,0,0,0-17.4,4.14,75.34,75.34,0,0,0-12.68,5.78,60.13,60.13,0,0,0-10.12,7.25,72.71,72.71,0,0,0-10.73,11.83l2.46,3a68.42,68.42,0,0,1,10.75-12A54.38,54.38,0,0,1,345.8,250,70.36,70.36,0,0,1,360.25,243a74.55,74.55,0,0,1,16.57-4c6.31-.66,11.93-.79,18.44-.93l1.6,0a77.92,77.92,0,0,0-13.57,13.27l-.33.42c-.32.43-.65.85-1,1.28-2.19,2.91-4.11,5.92-6,8.84-2.93,4.6-5.73,9-9.39,12.83a9.46,9.46,0,0,1-.75-1.05,20.82,20.82,0,0,1-1.47-3.23c0-.05,0-.11,0-.16a15.47,15.47,0,0,1-.68-3.71c0-.54-.06-1.08-.06-1.62v-.82c0-.28,0-.55,0-.83,0-1.1.12-2.21.25-3.33s.31-2.24.53-3.36q.17-.84.36-1.68c.13-.55.28-1.12.44-1.66l-.42-.21c-.34.49-.64,1-.94,1.51s-.57,1-.83,1.56a35.27,35.27,0,0,0-1.42,3.28l-.3.85-.28.86-.25.87c-.09.29-.16.59-.23.88s-.13.59-.2.89a22.44,22.44,0,0,0-.24,7.58c.11.82.21,1.44.33,2,.16.81.36,1.54.66,2.66.14.53.75,2.15,1,2.67-3.49,3.56-8.22,5.73-11.94,7.42a16.31,16.31,0,0,1-2.24-5.21l-.18-.65c-.09-.31-.18-.63-.23-.82s-.15-.52-.21-.78-.13-.52-.19-.79l-.15-.8c0-.27-.07-.55-.1-.82a39.2,39.2,0,0,1,0-6.68c.08-1.14.22-2.27.4-3.41.09-.57.19-1.13.3-1.7s.24-1.14.38-1.7l-.43-.19a25.84,25.84,0,0,0-1.66,3.17,34.79,34.79,0,0,0-1.29,3.36c-.1.29-.19.57-.27.86s-.17.58-.25.88c-.16.58-.29,1.18-.42,1.77a29.68,29.68,0,0,0-.51,3.65c-.09,1.24-.22,2.5-.2,3.77,0,.19,0,.38,0,.56,0,0,0,.37,0,1a22.86,22.86,0,0,0,1,6.77,53.44,53.44,0,0,1-6.51,1.51A57.32,57.32,0,0,1,327.68,290.6Z" transform="translate(-130.42 -130.42)"/><path class="cls-7" d="M412.18,364.12a14.26,14.26,0,0,0-2.79-4.1c-.29-.3-.6-.58-.91-.86l-.48-.39a6,6,0,0,0-.5-.38,15,15,0,0,0-2.1-1.27l-.55-.26-.55-.24-.56-.21-.57-.19c-.18-.07-.37-.12-.57-.18l-.57-.15c-.38-.08-.76-.18-1.14-.24a18,18,0,0,0-4.57-.21c-.37,0-.75.07-1.12.12s-.74.11-1.11.19L393,356c-.37.11-.72.22-1.08.35.35.16.7.29,1,.42l1,.38,2,.74c1.31.49,2.56,1,3.74,1.56l.22.1.22.11.43.22c.28.15.57.29.84.45.56.29,1.08.63,1.59,1l.38.25.36.27.36.27.34.28a13.3,13.3,0,0,1,1.3,1.18,15.47,15.47,0,0,1,2.16,2.77,20,20,0,0,1,1.62,3.32,32.46,32.46,0,0,1,1.18,3.8c.17.67.32,1.35.47,2.05s.28,1.42.41,2.16a9.81,9.81,0,0,0,1-2,14.07,14.07,0,0,0,.61-2.2,15.56,15.56,0,0,0,.22-4.63A14.65,14.65,0,0,0,412.18,364.12Z" transform="translate(-130.42 -130.42)"/><path class="cls-7" d="M423.22,359.92l-.18-.42a4.11,4.11,0,0,0-.21-.42l-.46-.8c-.16-.25-.34-.5-.52-.74s-.17-.25-.27-.36l-.29-.34a13.71,13.71,0,0,0-2.61-2.29c-.48-.3-1-.6-1.46-.85l-.76-.35a6.56,6.56,0,0,0-.77-.32,15.15,15.15,0,0,0-1.58-.49,13.25,13.25,0,0,0-1.65-.29,14.93,14.93,0,0,0,1.05,1.28l.52.6.52.59c.17.18.33.39.5.58l.5.57a3,3,0,0,1,.24.28l.24.29.48.56c.58.76,1.18,1.49,1.65,2.25.06.1.13.19.19.28s.11.19.17.28.22.38.33.57.19.38.29.57a2.55,2.55,0,0,1,.13.29l.12.28a10.42,10.42,0,0,1,.68,2.36,10.83,10.83,0,0,1,.1,2.56,13.4,13.4,0,0,1-.16,1.37c0,.23-.08.47-.13.71s-.1.48-.17.72a30.84,30.84,0,0,1-.92,3,6.31,6.31,0,0,0,1.45-.88,8.56,8.56,0,0,0,1.25-1.16,9.68,9.68,0,0,0,1.84-3,9.37,9.37,0,0,0,.67-3.63A10.11,10.11,0,0,0,423.22,359.92Z" transform="translate(-130.42 -130.42)"/></svg>