<?xml version="1.0" encoding="utf-8"?>
<!-- Generator: Adobe Illustrator 25.4.1, SVG Export Plug-In . SVG Version: 6.00 Build 0)  -->
<svg version="1.1" id="Layer_1" xmlns="http://www.w3.org/2000/svg" xmlns:xlink="http://www.w3.org/1999/xlink" x="0px" y="0px"
	 viewBox="0 0 1440 1024" style="enable-background:new 0 0 1440 1024;" xml:space="preserve">
<style type="text/css">
	.st0{fill:#16B297;}
	.st1{fill:#FFFFFF;}
	.st2{fill:#D3F1EA;}
	.st3{fill:#90DDC9;}
	.st4{fill:#21BB94;}
</style>
<g>
	<g>
		<polygon class="st0" points="726.34,495.28 685.87,570.42 649.24,495.49 628.17,495.49 681.44,602.42 691.41,602.42 
			747.93,495.28 		"/>
		<path class="st0" d="M1040.57,508.92c-4.23-4.31-9.59-7.93-15.72-10.6c-7.85-3.42-16.84-5.23-25.99-5.23
			c-17.76,0-32.74,5.27-43.31,15.24c-10.7,10.09-16.35,24.52-16.35,41.73c0,16.52,5.52,30.31,15.96,39.88
			c10.42,9.55,25.46,14.6,43.5,14.6c16.94,0,32.01-5.63,42.13-15.59v1.41c-0.71,8.73-7.41,12.12-7.41,12.12h25.15V456.92h-17.95
			V508.92z M1028.77,578.36c-7.14,6.33-17.48,9.67-29.92,9.67c-13.84,0-24.98-3.92-32.21-11.34c-6.36-6.52-9.57-15.72-9.3-26.6
			c0.59-25.75,15.72-40.51,41.51-40.51c12.99,0,23.1,3.65,30.05,10.85c7.06,7.31,10.63,18.04,10.63,31.91
			C1039.53,563.12,1035.81,572.12,1028.77,578.36z"/>
		<path class="st0" d="M1281.81,557.06l-7.28-7.64l47.07-49.27l2.87-2.99h-0.01h-22.68h-0.21l-38.32,40.41l-38.32-40.41h-0.21
			h-22.68h-0.01l2.87,2.99l47.06,49.26l-7.28,7.64h-0.28l-41.77,43.44h0.64h21.85h0.62l37.51-39.26l26.33,27.56
			c1.33,1.47,7.06,8.4,0.64,11.74h33.01h0.64l-41.77-43.48H1281.81z"/>
		<path class="st0" d="M1182.78,508.08c-4.81-5.06-10.9-9-18.38-11.23c-8.35-2.49-16.06-3.64-25.88-3.64
			c-8.33,0-16.27,1.23-23.59,3.64c-7.16,2.37-13.6,5.82-19.12,10.27c-5.53,4.45-10.02,9.79-13.34,15.86
			c-3.14,5.74-5.16,12.01-6.04,18.68c-1.48,11.34,0,23.87,5.28,34.11c3,5.82,7.25,10.84,12.62,14.92
			c12.13,9.31,26.17,13.84,42.94,13.84c15.53,0,31.82-2.79,44.9-11.53c7.18-4.8,11.68-11.07,11.68-11.07s-14.96-15.71-14.97-15.72
			c0.75,2.71-0.23,5.69-0.37,6.08c-0.61,1.69-1.78,3.41-3.04,4.75c-1.45,1.55-3.08,2.65-4.93,3.65c-1.17,0.63-2.37,1.21-3.58,1.77
			c-7.96,3.65-18.08,5.58-29.27,5.58c-12.53,0-22.17-2.98-29.48-9.1l-0.08-0.07c-6.72-5-11.23-12.6-12.84-21.58l12.83-0.05
			c-0.62-2.81-0.95-5.74-0.95-8.77c0-2.35,0.2-4.64,0.57-6.86l-12.41,0.03c1.83-9.17,6.71-17.17,13.61-22.17l0.07-0.05
			c8.09-6.47,18.01-9.75,29.51-9.75c24.14,0,36.75,9.94,38.64,31.77l-8.93,0.02c0.39,2.26,0.6,4.6,0.6,7c0,2.94-0.31,5.79-0.89,8.53
			l27.82-0.11l0.09-1.72c0.53-10.32-0.29-19.47-2.44-27.2C1191.22,520.15,1187.71,513.27,1182.78,508.08z"/>
		<path class="st0" d="M348.63,508.51c-4.05-4.35-9.21-7.85-15.42-10.43c-7.08-2.95-15.22-4.55-24.2-4.82
			c-1.18-7.24-3.37-13.8-6.57-19.6c1.57-0.07,3.12-0.23,4.65-0.49c6.75-1.12,13.08-4.09,18.3-8.57c3.63-3.12,6.04-6.9,8.37-10.56
			c1.19-1.87,2.42-3.79,3.79-5.6c3.25-4.28,7.32-7.98,12.08-11l3.36-2.13l-4.86-1.16c-10.44-2.5-21.24-5.09-32.04-3.58
			c-6.78,0.95-13.84,2.45-19.98,6.77c-1.31-2.96-2.9-5.76-4.78-8.37c-3.48-4.83-7.94-9.04-13.27-12.5
			c-9.74-6.35-22.29-10.18-36.29-11.08l-3.42-0.22l1.92,2.84c6.22,9.2,8.04,15.19,9.15,20.26c-5.61-1.92-11.36-3.02-16.29-3.33
			c-7.22-0.45-16.88-0.41-27.56,3.92l-3.3,1.33l3.12,1.7c4.1,2.24,8.29,5.62,10.69,8.62c1.23,1.54,2.41,3.16,3.54,4.72
			c1.57,2.16,3.16,4.35,4.96,6.43c0.34,0.4,0.7,0.79,1.06,1.18c2.45,2.64,5.33,5.05,9.06,6.96c-3.91,2.34-7.41,5.34-10.39,8.95
			c-2.58,3.12-4.66,6.56-6.15,10.07l-0.14,0.64h-0.78l-71.6,49.15l-0.28-95.31h-20.98l0.26,155.25c-0.47,9.93-8.18,13.87-8.18,13.87
			h8.2h20.98v-54.59l71.54,54.59h31.92l-84.79-64.48l77.04-52.79c1.08-0.1,2.17-0.17,3.28-0.21c3.43-0.13,6.97-0.06,10.56,0.22
			c0.39,0.03,0.78,0.06,1.18,0.1c0.85,0.08,1.7,0.16,2.56,0.26c1.5,0.18,3.04,0.41,4.53,0.65c4.06,0.63,8.25,1.28,12.54,0.84
			c5.14-0.52,9.54-1.63,13.08-3.28c4.78-2.23,8-5.46,9.57-9.59c0.02-0.06,0.05-0.13,0.08-0.22c3.35,5.64,5.65,12.11,6.89,19.3
			c-8.47,0.08-16.4,1.42-23.58,4.02c-7.23,2.62-13.58,6.47-18.85,11.42c-5.27,4.94-9.35,10.88-12.14,17.65
			c-2.84,6.87-4.27,14.46-4.27,22.56c0,16.38,5.56,30.31,16.07,40.28c10.61,10.06,25.59,15.38,43.32,15.38
			c9.13,0,18.08-1.67,25.89-4.82c6.2-2.5,11.71-5.95,16.16-10.08c-0.01,9.28-7.05,12.85-7.05,12.85h25.01v-107.2h-17.52V508.51z
			 M300.31,470.13c-1.03-1.57-2.15-3.08-3.35-4.52c-0.12-0.15-0.25-0.29-0.37-0.44c-0.01-0.01-0.02-0.02-0.03-0.04
			c-7.53-8.9-16-14.31-27.17-16.61l-1.31,3.26c5.48,1.13,10.29,3,14.71,5.73c3.79,2.34,7.2,5.25,10.4,8.87
			c0.39,0.45,0.78,0.9,1.17,1.36c0.64,0.77,1.25,1.56,1.84,2.37l-0.1,0.49c-0.09,0.34-0.16,0.64-0.23,0.89
			c-0.24,0.95-0.35,1.31-0.4,1.43c-1.25,3.29-3.89,5.89-7.84,7.74c-3.16,1.47-7.13,2.47-11.81,2.96c-0.49-1.37-1.85-3.2-1.85-3.2
			c-0.28-0.41-0.59-0.8-0.93-1.15c-0.16-0.17-0.32-0.33-0.49-0.49c-0.17-0.16-0.33-0.32-0.5-0.47l-0.51-0.46l-0.51-0.45
			c-0.17-0.15-0.34-0.29-0.52-0.44c-0.17-0.14-0.35-0.29-0.53-0.42c-0.18-0.14-0.36-0.28-0.54-0.41l-0.27-0.19l-0.28-0.2l-0.57-0.36
			c-0.19-0.12-0.38-0.23-0.57-0.35c-0.2-0.12-0.4-0.23-0.61-0.34c-0.19-0.1-0.38-0.2-0.57-0.3c-0.4-0.2-0.8-0.38-1.21-0.56
			c-0.2-0.09-0.41-0.17-0.61-0.25c-0.21-0.08-0.41-0.16-0.62-0.23c-0.83-0.29-1.67-0.54-2.55-0.68l-0.08,0.29
			c0.38,0.18,0.76,0.37,1.13,0.58c0.37,0.21,0.74,0.42,1.09,0.65c0.26,0.16,0.51,0.33,0.76,0.5c0.44,0.3,0.88,0.62,1.3,0.96
			c0.13,0.1,0.25,0.22,0.38,0.33c1.15,0.95,2.23,1.97,3.17,3.09c0.53,0.61,0.96,1.31,1.38,2c0.1,0.17,0.21,0.34,0.32,0.51
			c0,0,0.67,1.28,0.73,2.16c-2.56-0.11-5.13-0.5-7.81-0.92c-1.52-0.24-3.09-0.48-4.66-0.66c-1.02-0.12-2.04-0.22-3.06-0.31
			c-0.71-0.89-1.78-1.81-1.78-1.81c-0.2-0.22-0.42-0.43-0.65-0.63c-0.6-0.5-1.23-0.93-1.84-1.38c-0.31-0.22-0.62-0.44-0.94-0.64
			l-0.24-0.15l-0.24-0.14c-0.16-0.1-0.32-0.19-0.49-0.28c-0.17-0.09-0.33-0.18-0.49-0.26c-0.17-0.08-0.33-0.17-0.5-0.25l-0.51-0.23
			l-0.51-0.22c-0.22-0.09-0.45-0.17-0.67-0.25c-0.47-0.17-0.94-0.34-1.42-0.47c-0.71-0.2-1.42-0.36-2.15-0.45l-0.07,0.29
			c0.32,0.15,0.63,0.31,0.94,0.48c0.22,0.12,0.43,0.25,0.65,0.37c0.09,0.05,0.18,0.1,0.27,0.15c0.6,0.37,1.18,0.75,1.74,1.16
			l0.42,0.31l0.41,0.32l0.4,0.33c0.13,0.11,0.26,0.22,0.39,0.33c0.13,0.11,0.26,0.22,0.38,0.34l0.19,0.17l0.18,0.18
			c0.25,0.23,0.48,0.47,0.72,0.71c0.22,0.23,0.42,0.48,0.62,0.73c0.01,0.01,0.36,0.56,0.46,1c-1.65-0.06-3.27-0.07-4.88-0.04
			l3.01-2.07h-21.63c1.43-1.43,2.98-2.77,4.64-4c3.57-2.64,7.31-4.52,11.11-5.57c2.79-0.77,5.7-1.18,8.57-1.41
			c1.65-0.13,3.29-0.21,4.9-0.26c0.72-0.02,1.45-0.04,2.15-0.06c2.16-0.05,4.4-0.1,6.62-0.38c2.27-0.28,4.66-0.75,7.41-1.43
			l-1.6-2.02c-2.23,0.52-4.21,0.89-6.1,1.13c-2.1,0.26-4.27,0.31-6.38,0.36c-0.71,0.02-1.45,0.03-2.18,0.06
			c-2.16,0.07-4.38,0.18-6.62,0.42c-2.47,0.26-4.96,0.67-7.39,1.34c-4.09,1.13-8.08,3.13-11.88,5.95c-2.38,1.77-4.52,3.75-6.44,5.88
			h-3.25c1.35-3.01,3.17-5.94,5.34-8.56c2.86-3.46,6.23-6.31,10.01-8.49c2.45-1.41,5.03-2.51,7.72-3.28
			c1.87-0.54,3.8-0.92,5.76-1.15l-1.37-3.22c-1.46,0.2-2.9,0.5-4.31,0.86c-0.81,0.21-1.61,0.43-2.4,0.7
			c-0.45,0.15-0.9,0.31-1.34,0.47c-0.83,0.31-1.65,0.65-2.46,1.02c-0.13-0.04-0.3-0.09-0.48-0.17c-3.03-1.29-5.48-2.94-7.59-4.81
			c0.09-0.02,0.17-0.04,0.26-0.06c0.44-0.12,0.87-0.27,1.3-0.45c0.85-0.36,1.66-0.8,2.47-1.24c0.74-0.4,1.44-0.85,2.11-1.36
			c0.06-0.05,0.13-0.09,0.19-0.14c0,0,0.01-0.01,0.01-0.01c0.36-0.29,0.71-0.59,1.04-0.91c0.33-0.32,0.64-0.66,0.94-1.01
			c0.58-0.71,1.09-1.48,1.48-2.29c0.2-0.41,0.36-0.83,0.51-1.25l0.1-0.32c0.03-0.11,0.06-0.21,0.09-0.32
			c0.06-0.21,0.1-0.43,0.15-0.64l-0.28-0.09c-0.76,1.54-1.81,2.86-3.09,3.87c-0.63,0.51-1.31,0.95-2.03,1.33
			c-0.07,0.04-0.13,0.07-0.2,0.1c-0.11,0.06-0.23,0.11-0.35,0.17c-0.18,0.09-0.36,0.18-0.54,0.26c-0.37,0.17-0.74,0.32-1.12,0.45
			c-0.76,0.28-1.56,0.44-2.36,0.59c-0.4,0.08-0.79,0.16-1.19,0.25c-0.05,0.01-0.09,0.02-0.14,0.03c-1.11,0.26-2.22,0.08-2.29,0.07
			c-1.59-1.79-3.03-3.71-4.46-5.67c0.07-0.01,0.13-0.02,0.2-0.03c0.09-0.02,0.17-0.04,0.26-0.06c0.34-0.08,0.67-0.2,0.99-0.34
			c0.64-0.28,1.24-0.64,1.85-0.97c0.3-0.16,0.6-0.34,0.89-0.51c0.29-0.19,0.57-0.37,0.85-0.57c0.14-0.1,0.27-0.2,0.41-0.31
			l0.39-0.32c0.04-0.03,0.08-0.07,0.12-0.11c0.09-0.08,0.17-0.15,0.26-0.23c0.04-0.04,0.09-0.08,0.13-0.12
			c0.08-0.07,0.16-0.15,0.24-0.22c0.96-0.94,1.81-1.96,2.49-3.08l-0.22-0.2c-1.02,0.79-2.05,1.5-3.14,2.08
			c-0.12,0.07-0.25,0.13-0.37,0.19c-0.27,0.14-0.54,0.25-0.81,0.37c-0.16,0.07-0.31,0.15-0.47,0.22c-0.27,0.12-0.56,0.22-0.84,0.33
			c-0.28,0.1-0.56,0.2-0.85,0.28c-0.28,0.09-0.56,0.15-0.84,0.2c-3.28,0.47-4.27-0.38-4.27-0.38c-0.52-0.69-1.04-1.37-1.58-2.05
			c-1.75-2.2-4.27-4.5-7.06-6.52c0.01,0,0.03,0,0.04,0c7.63,0.18,14.48,1.01,22.42,3.37c1.26,0.37,2.55,0.78,3.87,1.24
			c6.47,2.22,12.09,5.43,16.26,9.28l0,0l1.06-2.19c-3.51-3.12-7.91-5.81-12.9-7.91c-1.19-0.5-2.41-0.97-3.66-1.4
			c-9.06-3.11-16.51-4.31-24.63-4.65c4.68-1.12,10.72-1.82,18.8-1.32c5.44,0.34,11.46,1.65,16.94,3.7c3.43,1.28,6.55,2.81,9.26,4.53
			c2.03,1.29,3.83,2.69,5.36,4.16c0.08,0.07,0.16,0.15,0.23,0.23c0,0,1.19-1.2,1.19-1.2l1.19-1.2c-0.59-0.58-1.2-1.14-1.84-1.69
			c-0.31-0.26-0.63-0.52-0.95-0.77c-0.13-0.1-0.25-0.21-0.38-0.31c0.04-0.04,0.08-0.08,0.12-0.13c0.02-0.02,0.05-0.06,0.08-0.1
			c0.06-0.08,0.12-0.17,0.15-0.21c0.46-0.8,0.68-1.25,0.92-2.01c0.36-1.12,0.63-2.07,0.7-3.24c0.03-0.54,0.03-1.26-0.01-1.78
			c-0.02-0.26-0.04-0.53-0.08-0.79c-0.04-0.26-0.08-0.52-0.14-0.78l-0.3,0.01c-0.06,0.24-0.12,0.49-0.19,0.73
			c-0.07,0.24-0.14,0.48-0.22,0.72c-0.16,0.47-0.33,0.94-0.52,1.38c-0.36,0.85-0.77,1.64-1.24,2.37c-0.12,0.16-0.24,0.3-0.35,0.44
			c-0.85,1-1.67,1.55-1.67,1.55c-2.38-1.49-5.35-3.14-8-4.24c-0.14-0.7-0.29-1.41-0.45-2.14c0-0.01,0.68-0.34,0.71-0.36
			c0.74-0.43,1.41-1.03,1.95-1.68c0.09-0.11,0.18-0.21,0.28-0.32c0.1-0.1,0.18-0.22,0.27-0.32l0.13-0.16l0.12-0.17
			c0.16-0.22,0.31-0.46,0.46-0.69c0.07-0.12,0.14-0.24,0.2-0.36l0.18-0.36l0.17-0.37c0.01-0.01,0.01-0.03,0.02-0.04
			c0.05-0.11,0.09-0.22,0.14-0.33c0.19-0.5,0.34-1.01,0.44-1.52c0.1-0.52,0.17-1.03,0.17-1.56l-0.29-0.06
			c-0.39,0.79-0.88,1.5-1.42,2.15c-0.06,0.08-0.12,0.16-0.18,0.24l-0.23,0.26l-0.24,0.25l-0.24,0.24l-0.25,0.23
			c-0.17,0.15-0.34,0.3-0.51,0.43l-0.13,0.1l-0.13,0.1c-0.09,0.06-0.17,0.13-0.27,0.19c-0.51,0.32-1.03,0.57-1.61,0.75
			c-0.16,0.05-0.36,0.13-0.53,0.11c-1.02-3.6-2.72-8.14-5.82-13.41c0.43,0.17,0.84,0.34,1.25,0.51c5.51,2.24,10.23,4.73,14.3,7.55
			c6.94,4.8,12.33,11.49,15.02,18.48c0.35,0.92,0.66,1.84,0.92,2.77c0.13,0.48,0.25,0.96,0.36,1.43l2.13-1.17
			c-0.24-0.97-0.53-1.94-0.87-2.91c-2.73-7.77-8.59-15.25-16.23-20.53c-4.03-2.79-8.65-5.26-14-7.49
			c10.42,1.54,19.74,4.86,27.26,9.76c4.97,3.24,9.14,7.16,12.37,11.65c1.64,2.28,3.06,4.72,4.23,7.3c1,2.2,1.83,4.5,2.47,6.89
			c0.06,0.23,0.12,0.47,0.18,0.7l3-1.81c-0.32-1.17-0.69-2.33-1.09-3.46c0.94-0.71,1.93-1.35,2.98-1.94
			c1.55-0.87,3.22-1.61,5.03-2.24c3.04-1.06,6.48-1.82,11.15-2.48c6.73-0.94,13.6-0.16,20.41,1.18c-1.89,0.08-3.78,0.21-5.78,0.42
			c-3.28,0.34-6.97,1.22-10.97,2.61c-2.81,0.98-5.52,2.22-8,3.65c-2.38,1.37-4.54,2.91-6.38,4.57c-2.7,2.42-4.9,4.85-6.76,7.46
			l1.55,1.87c1.84-2.67,4.04-5.13,6.78-7.59c1.31-1.17,2.82-2.31,4.47-3.35c2.75-1.75,5.89-3.27,9.11-4.39
			c3.83-1.33,7.35-2.17,10.45-2.5c3.98-0.42,7.53-0.49,11.63-0.59c0.33-0.01,0.67-0.01,1.01-0.02c-3.22,2.46-6.06,5.27-8.52,8.35
			c-0.14,0.18-0.3,0.36-0.44,0.54c-0.14,0.18-0.28,0.36-0.42,0.54c-1.38,1.84-2.59,3.74-3.77,5.58c-1.85,2.9-3.61,5.66-5.92,8.09
			c-0.13-0.11-0.45-0.61-0.47-0.66c-0.41-0.76-0.68-1.3-0.93-2.03c-0.01-0.04-0.02-0.07-0.03-0.11c-0.25-0.76-0.38-1.54-0.43-2.34
			c-0.02-0.34-0.04-0.68-0.04-1.02l-0.01-0.26l0-0.26c0-0.17,0-0.35,0.01-0.52c0.02-0.7,0.07-1.4,0.16-2.1
			c0.08-0.71,0.19-1.41,0.33-2.12c0.07-0.35,0.15-0.71,0.23-1.06c0.08-0.35,0.17-0.71,0.27-1.05l-0.27-0.13
			c-0.22,0.31-0.4,0.63-0.59,0.95c-0.18,0.32-0.36,0.65-0.53,0.99c-0.33,0.67-0.63,1.36-0.89,2.07l-0.19,0.53l-0.18,0.54l-0.16,0.55
			c-0.05,0.18-0.1,0.37-0.14,0.56c-0.05,0.19-0.08,0.37-0.12,0.56c-0.33,1.57-0.37,3.19-0.15,4.78c0.07,0.52,0.13,0.91,0.21,1.28
			c0.1,0.51,0.23,0.97,0.41,1.68c0.09,0.34,0.47,1.36,0.61,1.68c-2.2,2.25-5.19,3.61-7.53,4.68c-0.45-0.5-0.92-1.69-1.41-3.28
			c-0.02-0.1-0.07-0.25-0.11-0.41c-0.06-0.19-0.11-0.4-0.14-0.52c-0.05-0.16-0.09-0.33-0.13-0.49c-0.04-0.17-0.09-0.33-0.12-0.5
			c-0.03-0.17-0.07-0.34-0.09-0.51c-0.03-0.17-0.04-0.34-0.06-0.51c-0.13-1.37-0.12-2.79-0.01-4.22c0.05-0.71,0.14-1.43,0.25-2.15
			c0.06-0.36,0.12-0.72,0.19-1.07c0.07-0.36,0.15-0.72,0.24-1.07l-0.27-0.12c-0.4,0.64-0.74,1.31-1.05,2
			c-0.31,0.69-0.57,1.4-0.82,2.12c-0.06,0.18-0.12,0.36-0.17,0.55c-0.05,0.18-0.11,0.37-0.16,0.55c-0.1,0.37-0.18,0.74-0.27,1.12
			c-0.15,0.75-0.26,1.52-0.32,2.3c-0.06,0.78-0.14,1.57-0.13,2.38c0,0.12,0,0.24,0.01,0.35c0,0,0,0.23,0.01,0.6
			c0.02,1.02,0.13,3.09,0.62,4.27c-1.35,0.4-2.72,0.72-4.11,0.95c-1.99,0.33-4.03,0.49-6.09,0.48
			C300.4,470.26,300.36,470.2,300.31,470.13z M348.01,551.35c0,10.67-3.76,19.76-10.88,26.28c-7.3,6.68-17.66,10.21-29.96,10.21
			c-13.2,0-24.07-3.96-31.44-11.45c-6.74-6.86-10.21-16.36-10.02-27.49c0.4-23.98,16.03-38.95,40.83-39.2
			c-0.05,1.07-0.09,2.14-0.17,3.23c-0.27,3.46-0.73,6.97-1.39,10.51c-0.88-0.04-1.75-0.09-2.63-0.14c-1.43-0.1-2.87-0.22-4.33-0.36
			c-1.45-0.15-2.92-0.31-4.41-0.48c-1.49-0.17-2.99-0.36-4.57-0.52c0.57,0.56,1.21,1.03,1.86,1.48c0.65,0.44,1.32,0.85,2.01,1.22
			c1.38,0.75,2.82,1.38,4.31,1.88c1.49,0.51,3.02,0.9,4.58,1.18c1.56,0.27,3.14,0.44,4.73,0.47c3.18,0.07,6.4-0.36,9.42-1.38
			c0.19-0.06,0.38-0.12,0.57-0.19l0.56-0.22c0.37-0.15,0.74-0.3,1.1-0.46c0.36-0.17,0.72-0.35,1.07-0.52l0.26-0.13
			c0.09-0.05,0.18-0.09,0.26-0.14l0.51-0.3c0.34-0.21,0.68-0.4,1.01-0.62c0.33-0.23,0.65-0.46,0.96-0.7l0.24-0.18
			c0.08-0.06,0.16-0.12,0.23-0.18l0.45-0.39c0.29-0.27,0.59-0.53,0.86-0.82c-1.58,0.21-3.05,0.53-4.53,0.72l-0.55,0.09
			c-0.18,0.03-0.37,0.05-0.55,0.07c-0.37,0.05-0.73,0.09-1.09,0.15l-1.08,0.12l-0.54,0.06c-0.18,0.01-0.36,0.03-0.54,0.04
			c-2.27,0.22-4.52,0.31-6.77,0.32c0.71-3.9,1.18-7.77,1.43-11.58c0.05-0.73,0.06-1.45,0.09-2.17c5.45,0.22,10.44,1.11,14.86,2.66
			c4.98,1.75,9.26,4.34,12.71,7.71c3.42,3.34,6.05,7.45,7.82,12.23c1.8,4.86,2.71,10.42,2.71,16.52V551.35z"/>
		<path class="st0" d="M599,508.51c-4.05-4.35-9.21-7.85-15.42-10.43c-7.78-3.24-16.82-4.88-26.87-4.88
			c-8.76,0-16.94,1.36-24.32,4.04c-7.23,2.62-13.58,6.47-18.85,11.42c-5.27,4.94-9.35,10.88-12.14,17.65
			c-2.84,6.87-4.27,14.46-4.27,22.56c0,16.38,5.56,30.31,16.07,40.28c10.62,10.06,25.59,15.38,43.32,15.38
			c9.13,0,18.08-1.67,25.89-4.82c6.2-2.5,11.71-5.95,16.16-10.08c-0.01,9.28-7.05,12.85-7.05,12.85h25.01v-107.2H599V508.51z
			 M598.38,551.35c0,10.67-3.76,19.76-10.88,26.28c-7.3,6.68-17.66,10.21-29.96,10.21c-13.2,0-24.07-3.96-31.44-11.45
			c-6.74-6.86-10.21-16.36-10.02-27.49c0.4-24.19,16.29-39.21,41.46-39.21c6.53,0,12.45,0.92,17.59,2.72
			c4.98,1.75,9.26,4.34,12.71,7.71c3.42,3.34,6.05,7.45,7.82,12.23c1.8,4.86,2.71,10.42,2.71,16.52V551.35z"/>
		<path class="st0" d="M845.81,508.51c-4.05-4.35-9.21-7.85-15.42-10.43c-7.78-3.24-16.82-4.88-26.87-4.88
			c-8.76,0-16.94,1.36-24.32,4.04c-7.23,2.62-13.58,6.47-18.85,11.42c-5.27,4.94-9.35,10.88-12.14,17.65
			c-2.84,6.87-4.27,14.46-4.27,22.56c0,16.38,5.56,30.31,16.07,40.28c10.62,10.06,25.59,15.38,43.32,15.38
			c9.13,0,18.08-1.67,25.89-4.82c6.2-2.5,11.71-5.95,16.16-10.08c-0.01,9.28-7.05,12.85-7.05,12.85h25.01v-107.2h-17.52V508.51z
			 M845.19,551.35c0,10.67-3.76,19.76-10.88,26.28c-7.3,6.68-17.66,10.21-29.96,10.21c-13.2,0-24.07-3.96-31.44-11.45
			c-6.74-6.86-10.21-16.36-10.02-27.49c0.4-24.19,16.29-39.21,41.46-39.21c6.53,0,12.45,0.92,17.59,2.72
			c4.98,1.75,9.26,4.34,12.71,7.71c3.42,3.34,6.05,7.45,7.82,12.23c1.8,4.86,2.71,10.42,2.71,16.52V551.35z"/>
		<path class="st0" d="M415.42,512.31c4.51-2.29,11.63-3.45,21.15-3.45c15.1,0,30.87,3.77,43.53,10.1l0.56,0.28
			c1.07-2.51,2.3-5.09,3.85-7.68c1.51-2.51,3.18-4.09,4.84-6.16l-1.31-0.65c-15.91-7.86-34.1-11.95-51.47-11.95
			c-13.63,0-25.13,2.21-33.27,6.39c-4.69,2.41-8.34,5.5-10.84,9.17c-2.72,4-4.1,8.71-4.1,14.01c0,8.18,3.89,15.14,11.58,20.68
			c7.47,5.39,18.78,9.55,33.59,12.37c9.23,1.87,17.33,3.64,23.15,6.41c6.03,2.87,8.72,6.35,8.72,11.27c0,4.5-2.73,8.14-8.13,10.82
			c-5.7,2.84-14.01,4.34-24.01,4.34c-16.68,0-30.68-3.93-41.61-11.68l-1.67-1.18c-7.68,12.18-14.78,11.86-14.78,11.86
			c4.67,2.95,9.28,6.04,14.28,8.41c4.34,2.06,8.89,3.67,13.54,4.91c9.91,2.62,20.21,3.54,30.44,3.54c15.95,0,29.21-2.82,38.35-8.14
			c9.43-5.5,14.42-13.55,14.42-23.29c0-9.19-4.18-16.6-12.42-22.02l-0.1-0.06c-8.08-4.59-18.72-8.14-31.61-10.56
			c-12.94-2.57-20.97-5-26.03-7.87c-4.82-2.74-6.87-5.8-6.87-10.22C409.2,517.53,411.18,514.47,415.42,512.31z"/>
	</g>
	<ellipse class="st0" cx="1124.38" cy="547.44" rx="11.89" ry="17.65"/>
	<ellipse class="st0" cx="1151.61" cy="547.44" rx="11.89" ry="17.65"/>
	
		<ellipse transform="matrix(0.1727 -0.985 0.985 0.1727 398.6395 1554.1515)" class="st1" cx="1124.46" cy="539.78" rx="7.02" ry="5.87"/>
	
		<ellipse transform="matrix(0.985 -0.1727 0.1727 0.985 -75.9065 206.9361)" class="st1" cx="1151.53" cy="539.78" rx="5.88" ry="7.03"/>
	<ellipse class="st0" cx="1138.82" cy="574.31" rx="3.28" ry="4.82"/>
	<path class="st0" d="M1076.54,474.29l0.4,1.22c0.13,0.4,0.27,0.78,0.41,1.16c0.28,0.76,0.57,1.48,0.9,2.16
		c0.33,0.68,0.68,1.32,1.08,1.9c0.4,0.58,0.84,1.1,1.33,1.56c0.49,0.46,1.03,0.86,1.62,1.22c0.3,0.17,0.61,0.33,0.93,0.49
		c0.16,0.07,0.33,0.15,0.5,0.22c0.17,0.07,0.34,0.13,0.52,0.2c0.7,0.26,1.45,0.47,2.23,0.67c0.2,0.05,0.39,0.09,0.59,0.15
		c0.2,0.05,0.4,0.09,0.61,0.14c0.2,0.04,0.41,0.09,0.62,0.14c0.21,0.05,0.42,0.1,0.64,0.16c-0.19,0.11-0.39,0.2-0.59,0.29
		c-0.2,0.08-0.41,0.16-0.61,0.24c-0.21,0.07-0.42,0.13-0.63,0.19c-0.21,0.05-0.43,0.11-0.64,0.15c-0.87,0.17-1.77,0.24-2.68,0.16
		c-0.46-0.04-0.92-0.11-1.37-0.22c-0.46-0.11-0.91-0.26-1.35-0.45c-0.88-0.38-1.72-0.92-2.43-1.59c-0.71-0.67-1.29-1.46-1.72-2.31
		c-0.43-0.85-0.72-1.74-0.88-2.63c-0.16-0.9-0.19-1.8-0.11-2.68c0.04-0.44,0.11-0.88,0.22-1.3
		C1076.21,475.12,1076.34,474.69,1076.54,474.29z"/>
	<path class="st0" d="M1072.27,483.01l0.3,0.93c0.1,0.3,0.2,0.58,0.3,0.86c0.2,0.55,0.42,1.06,0.65,1.52
		c0.24,0.46,0.49,0.88,0.77,1.24c0.28,0.37,0.58,0.69,0.92,0.98c0.34,0.29,0.72,0.55,1.13,0.8c0.11,0.06,0.22,0.12,0.32,0.18
		l0.08,0.05l0.09,0.04l0.17,0.08c0.06,0.03,0.12,0.06,0.17,0.09l0.09,0.05l0.09,0.04c0.12,0.05,0.24,0.11,0.37,0.17
		c0.12,0.06,0.25,0.11,0.38,0.16c0.13,0.05,0.26,0.11,0.39,0.17c0.27,0.1,0.54,0.21,0.82,0.32c0.28,0.1,0.57,0.22,0.86,0.34
		c0.3,0.11,0.6,0.23,0.91,0.39c-0.29,0.17-0.6,0.31-0.91,0.44c-0.31,0.12-0.63,0.21-0.95,0.29c-0.32,0.07-0.65,0.12-0.99,0.16
		c-0.17,0.01-0.34,0.02-0.5,0.02c-0.17,0-0.34,0.01-0.51,0c-0.17-0.01-0.34-0.03-0.52-0.04l-0.13-0.01l-0.13-0.02
		c-0.09-0.02-0.17-0.03-0.26-0.05c-0.35-0.06-0.69-0.17-1.03-0.29c-0.68-0.26-1.34-0.63-1.92-1.13c-0.58-0.5-1.06-1.12-1.4-1.8
		c-0.34-0.67-0.54-1.4-0.6-2.1c-0.07-0.71,0-1.41,0.16-2.07c0.08-0.33,0.19-0.65,0.34-0.96
		C1071.89,483.58,1072.05,483.28,1072.27,483.01z"/>
	<path class="st1" d="M1085.92,459.28c9.17,14.88,27.36,8.89,40.59,7.26c3.51-0.43,7.06-0.58,10.59-0.44
		c9.44,0.36,17.49,3.73,25.67,9.79c-4.9-4.16-9.05-8.99-13.8-13.32c-5.64-5.14-11.26-10.09-17.99-14.12
		c-6.79-4.07-14.06-6.43-21.02-6.84c-1.06-0.06-2.1-0.09-3.13-0.09c-6.65,0-12.48,1.29-16.66,3.71c-1.66,0.96-3.08,2.07-4.25,3.3
		c0,0,0,0,0,0C1083.86,452.54,1085.04,457.85,1085.92,459.28z"/>
	<path class="st2" d="M1164.09,476.99c-0.05-0.03-0.08-0.05-0.08-0.05C1164.02,476.94,1164.05,476.96,1164.09,476.99z"/>
	<path class="st2" d="M1163.95,476.86c-0.4-0.32-0.79-0.65-1.18-0.98c-7.89-5.85-15.66-9.19-24.68-9.74c-0.02,0-0.05,0-0.07,0
		c-0.3-0.02-0.61-0.03-0.92-0.04c-3.54-0.13-7.08,0.01-10.59,0.44c-13.23,1.63-31.42,7.62-40.59-7.26c-0.88-1.42-2.06-6.74,0-10.76
		c0,0,0,0,0,0c-1.7,1.79-2.87,3.85-3.51,6.15c-0.14,3.3,0.1,5.57,0.71,7.13c2.06,5.25,5.62,9.84,11.23,11.45
		c7.45,2.13,15.61,0.76,22.83-1.16c9.28-2.46,18.87-4.27,28.15-2.69c1.29,0.22,2.58,0.51,3.86,0.86c2.59,0.73,5.11,1.68,7.56,2.79
		c1.25,0.57,2.49,1.19,3.71,1.84c0.24,0.13,0.5,0.27,0.76,0.43c0.84,0.48,1.76,1.05,2.81,1.61c0,0,0.03,0.02,0.08,0.05
		c0.02,0.01,0.04,0.02,0.06,0.04C1164.09,476.97,1164.02,476.92,1163.95,476.86z"/>
	<path class="st3" d="M1164.09,476.99c-0.05-0.03-0.08-0.05-0.08-0.05c-1.05-0.56-1.98-1.13-2.81-1.61
		c-0.26-0.15-0.52-0.29-0.76-0.43c-1.22-0.65-2.45-1.27-3.71-1.84c-2.44-1.12-4.97-2.07-7.56-2.79c-1.28-0.36-2.57-0.64-3.86-0.86
		c-9.28-1.58-18.87,0.22-28.15,2.69c-7.22,1.92-15.38,3.29-22.83,1.16c-5.6-1.61-9.17-6.2-11.23-11.45
		c-0.61-1.56-0.84-3.84-0.71-7.13c-0.06,0.21-0.11,0.42-0.16,0.63c-0.34,1.46-0.46,3.01-0.37,4.64c0.21,3.73,1.23,7.01,3.03,9.74
		c3.19,4.84,7.42,8,12.59,9.4c3.8,1.03,8.08,1.12,12.72,0.26c0.83-0.15,2.13-0.47,3.78-0.87c4.71-1.14,12.6-3.05,20.96-3.86
		c6.97-0.67,14.22-0.27,22.18,0.84c2.51,0.35,4.94,0.94,7.3,1.8c-0.09-0.07-0.19-0.15-0.28-0.22
		C1164.13,477.01,1164.11,477,1164.09,476.99z"/>
	<path class="st0" d="M1185.45,467.28c-3.4-4.98-9.38-8.8-16.83-10.77c-6.96-1.84-14.76-1.96-22.05-0.36
		c-4.32-3.77-8.8-7.34-13.96-10.43c-3.46-2.07-7.04-3.73-10.64-4.95c-3.94-1.32-7.92-2.11-11.83-2.34
		c-8.55-0.5-16.21,0.94-21.56,4.04c-6.78,3.93-10.29,10.2-9.87,17.65c0.24,4.3,1.43,8.1,3.55,11.31c3.63,5.5,8.48,9.11,14.41,10.71
		c2.35,0.63,4.84,0.95,7.47,0.95c2.14,0,4.36-0.21,6.66-0.63c0.92-0.17,2.26-0.49,3.95-0.9c4.63-1.12,12.38-3,20.52-3.79
		c6.72-0.65,13.73-0.25,21.43,0.83c6.58,0.92,10.28,2.89,15.82,4.28c4.9,1.56,9.39,0.25,11.79-1.22c1.89-1.16,3.05-2.78,3.59-4.23
		C1188.91,474.75,1187.82,470.74,1185.45,467.28z M1157.14,475.45c-7.96-1.12-15.21-1.52-22.18-0.84
		c-8.37,0.81-16.25,2.72-20.96,3.86c-1.65,0.4-2.95,0.71-3.78,0.87c-4.64,0.85-8.92,0.77-12.72-0.26c-5.17-1.4-9.41-4.56-12.59-9.4
		c-1.8-2.73-2.82-6.01-3.03-9.74c-0.09-1.63,0.04-3.18,0.37-4.64c0.05-0.21,0.1-0.42,0.16-0.63c0.64-2.3,1.82-4.36,3.51-6.15
		c1.17-1.24,2.59-2.34,4.25-3.3c4.18-2.42,10.01-3.71,16.66-3.71c1.02,0,2.07,0.03,3.13,0.09c6.96,0.41,14.23,2.77,21.02,6.84
		c6.73,4.03,12.35,8.98,17.99,14.12c4.75,4.33,8.9,9.16,13.8,13.32c0.39,0.29,0.78,0.59,1.18,0.89c0,0,0.14,0.2,0.21,0.25
		c0.09,0.07,0.19,0.15,0.28,0.22C1162.08,476.4,1159.66,475.81,1157.14,475.45z"/>
	<path class="st4" d="M1164.16,477.03c-0.07-0.05-0.21-0.25-0.21-0.25c-0.39-0.3-0.79-0.6-1.18-0.89c0.39,0.33,0.78,0.66,1.18,0.98
		C1164.02,476.92,1164.09,476.97,1164.16,477.03z"/>
	<path class="st0" d="M1193.38,467.23c-0.08-0.47-0.17-0.92-0.26-1.36c-0.09-0.44-0.19-0.87-0.29-1.29
		c-0.21-0.84-0.46-1.64-0.74-2.4c-0.29-0.75-0.63-1.45-1.02-2.1c-0.4-0.64-0.85-1.22-1.36-1.75c-0.26-0.26-0.53-0.51-0.82-0.75
		c-0.07-0.06-0.14-0.12-0.22-0.18c-0.07-0.06-0.15-0.12-0.22-0.17l-0.23-0.17c-0.08-0.05-0.16-0.11-0.24-0.16
		c-0.32-0.21-0.65-0.42-1-0.61c-0.17-0.1-0.35-0.19-0.53-0.28l-0.27-0.13l-0.14-0.07l-0.14-0.06c-0.75-0.35-1.53-0.67-2.36-0.98
		l-1.26-0.47c-0.21-0.07-0.43-0.16-0.65-0.24c-0.22-0.08-0.44-0.16-0.66-0.26c0.22-0.08,0.45-0.15,0.68-0.22
		c0.23-0.06,0.46-0.12,0.69-0.16c0.23-0.05,0.46-0.08,0.7-0.12c0.23-0.03,0.47-0.06,0.71-0.08c0.95-0.07,1.91-0.03,2.88,0.14
		c0.24,0.04,0.48,0.1,0.72,0.15c0.12,0.03,0.24,0.07,0.36,0.1c0.12,0.03,0.24,0.07,0.36,0.11l0.36,0.12
		c0.12,0.04,0.23,0.09,0.35,0.14c0.12,0.04,0.23,0.1,0.35,0.15c0.12,0.05,0.23,0.1,0.35,0.16c0.46,0.22,0.9,0.5,1.32,0.8
		c0.1,0.08,0.21,0.15,0.31,0.24l0.3,0.25c0.2,0.18,0.39,0.35,0.57,0.54c0.74,0.75,1.34,1.64,1.76,2.59
		c0.43,0.95,0.68,1.95,0.78,2.94c0.1,0.99,0.05,1.98-0.14,2.92c-0.09,0.47-0.22,0.94-0.38,1.39
		C1193.83,466.38,1193.64,466.82,1193.38,467.23z"/>
	<path class="st0" d="M1197.91,463.83c0.23-0.67,0.43-1.29,0.58-1.91c0.04-0.15,0.07-0.3,0.1-0.45c0.03-0.15,0.06-0.3,0.08-0.45
		c0.04-0.3,0.09-0.58,0.1-0.86c0.04-0.56,0.02-1.1-0.06-1.61c-0.08-0.51-0.23-1-0.43-1.49l-0.08-0.18
		c-0.02-0.06-0.05-0.12-0.08-0.18c-0.06-0.12-0.12-0.24-0.18-0.36c-0.07-0.12-0.14-0.24-0.21-0.36c-0.04-0.06-0.06-0.12-0.11-0.18
		c-0.04-0.06-0.08-0.12-0.12-0.18c-0.3-0.48-0.67-0.94-1.05-1.42c-0.1-0.11-0.2-0.23-0.3-0.35l-0.15-0.18
		c-0.05-0.06-0.1-0.12-0.15-0.18c-0.11-0.12-0.21-0.24-0.32-0.36c-0.11-0.12-0.21-0.25-0.32-0.37c-0.11-0.12-0.22-0.24-0.33-0.37
		c-0.11-0.13-0.21-0.26-0.33-0.38c-0.23-0.25-0.45-0.51-0.66-0.81c0.35,0.04,0.7,0.1,1.04,0.18c0.34,0.08,0.67,0.2,1,0.31
		c0.17,0.05,0.32,0.13,0.48,0.2c0.16,0.07,0.32,0.15,0.48,0.22c0.31,0.16,0.62,0.35,0.92,0.54c0.59,0.41,1.16,0.87,1.64,1.44
		c0.06,0.07,0.12,0.14,0.18,0.21c0.06,0.07,0.11,0.15,0.17,0.23c0.11,0.15,0.22,0.31,0.33,0.47l0.29,0.5
		c0.05,0.08,0.09,0.17,0.13,0.26l0.12,0.27c0.3,0.73,0.48,1.52,0.49,2.32c0.01,0.8-0.14,1.58-0.42,2.29
		c-0.28,0.71-0.68,1.34-1.16,1.88c-0.24,0.27-0.5,0.52-0.79,0.73C1198.54,463.49,1198.24,463.69,1197.91,463.83z"/>
	<path class="st1" d="M331.44,437.83c-3.1,0.32-6.62,1.16-10.45,2.5c-3.22,1.12-6.36,2.64-9.11,4.39c-1.65,1.05-3.17,2.18-4.47,3.35
		c-2.74,2.46-4.94,4.92-6.78,7.59l-1.55-1.87c1.87-2.61,4.07-5.04,6.76-7.46c1.84-1.65,4-3.2,6.38-4.57c2.48-1.43,5.18-2.67,8-3.65
		c4-1.39,7.69-2.27,10.97-2.61c2-0.21,3.89-0.34,5.78-0.42c-6.81-1.34-13.68-2.13-20.41-1.18c-4.67,0.65-8.11,1.42-11.15,2.48
		c-1.81,0.63-3.48,1.38-5.03,2.24c-1.05,0.59-2.04,1.23-2.98,1.94c0.4,1.13,0.77,2.29,1.09,3.46l-3,1.81
		c-0.06-0.24-0.12-0.47-0.18-0.7c-0.65-2.39-1.48-4.69-2.47-6.89c-1.17-2.58-2.59-5.02-4.23-7.3c-3.24-4.49-7.4-8.41-12.37-11.65
		c-7.52-4.9-16.84-8.22-27.26-9.76c5.35,2.23,9.97,4.7,14,7.49c7.64,5.28,13.5,12.76,16.23,20.53c0.34,0.97,0.63,1.94,0.87,2.91
		l-2.13,1.17c-0.11-0.48-0.23-0.96-0.36-1.43c-0.26-0.93-0.57-1.85-0.92-2.77c-2.69-6.99-8.08-13.68-15.02-18.48
		c-4.07-2.82-8.8-5.31-14.3-7.55c2.57,2.47,5.82,5.9,8.9,10c0.53-0.65,1.02-1.37,1.42-2.15l0.29,0.06c0,0.53-0.06,1.04-0.17,1.56
		c-0.1,0.51-0.25,1.02-0.44,1.52c-0.04,0.11-0.09,0.22-0.14,0.33c2.1,2.95,4.08,6.2,5.64,9.68c0.12-0.14,0.24-0.28,0.35-0.44
		c0.47-0.72,0.88-1.52,1.24-2.37c0.19-0.45,0.36-0.91,0.52-1.38c0.08-0.24,0.15-0.48,0.22-0.72c0.07-0.24,0.13-0.49,0.19-0.73
		l0.3-0.01c0.06,0.26,0.1,0.52,0.14,0.78c0.03,0.26,0.06,0.52,0.08,0.79c0.04,0.53,0.04,1.25,0.01,1.78
		c-0.07,1.18-0.33,2.13-0.7,3.24c-0.24,0.75-0.46,1.21-0.92,2.01c-0.02,0.04-0.09,0.13-0.15,0.21c0.06,0.18,0.12,0.35,0.19,0.53
		c0.32,0.25,0.64,0.51,0.95,0.77c0.64,0.54,1.26,1.1,1.84,1.69l-1.19,1.2c0,0-1.19,1.2-1.19,1.2c-0.08-0.08-0.15-0.15-0.23-0.23
		c-1.53-1.48-3.33-2.87-5.36-4.16c-2.71-1.72-5.82-3.24-9.26-4.53c-5.48-2.05-11.5-3.36-16.94-3.7c-8.08-0.5-14.12,0.21-18.8,1.32
		c8.12,0.35,15.57,1.55,24.63,4.65c1.25,0.43,2.47,0.9,3.66,1.4c4.99,2.1,9.39,4.79,12.9,7.91l-1.06,2.19l0,0
		c-4.17-3.85-9.79-7.06-16.26-9.28c-1.32-0.45-2.61-0.86-3.87-1.24c-7.93-2.35-14.79-3.19-22.42-3.37
		c3.47,0.75,9.39,2.56,14.27,6.74c0,0,0.67,0.45,1.6,1.19c0.27-0.12,0.54-0.24,0.81-0.37c0.12-0.06,0.25-0.13,0.37-0.19
		c1.09-0.58,2.13-1.29,3.14-2.08l0.22,0.2c-0.68,1.12-1.53,2.14-2.49,3.08c-0.08,0.08-0.16,0.15-0.24,0.22
		c-0.04,0.04-0.09,0.08-0.13,0.12c-0.09,0.08-0.17,0.15-0.26,0.23c1.31,1.16,2.75,2.63,3.63,4.15c0,0,0.95,1.33,2.52,3.07
		c0.11-0.06,0.23-0.11,0.35-0.17c0.07-0.03,0.13-0.07,0.2-0.1c0.71-0.38,1.39-0.82,2.03-1.33c1.27-1.01,2.33-2.33,3.09-3.87
		l0.28,0.09c-0.05,0.21-0.09,0.43-0.15,0.64c-0.03,0.11-0.06,0.21-0.09,0.32l-0.1,0.32c-0.15,0.42-0.31,0.84-0.51,1.25
		c-0.39,0.81-0.9,1.58-1.48,2.29c-0.3,0.35-0.61,0.69-0.94,1.01c-0.33,0.32-0.68,0.62-1.04,0.91c0,0-0.01,0.01-0.01,0.01
		c-0.06,0.05-0.13,0.09-0.19,0.14c2.18,2.21,5.07,4.64,8.14,5.89c1.41-0.37,2.85-0.66,4.31-0.86l1.37,3.22
		c-1.97,0.22-3.89,0.61-5.76,1.15c-2.69,0.77-5.27,1.87-7.72,3.28c-3.78,2.18-7.14,5.03-10.01,8.49c-2.62,3.16-4.74,6.77-6.13,10.45
		c-0.79,2.09-1.34,4.17-1.63,6.16c0.84-1.58,1.78-3.1,2.83-4.56c2.53-3.52,5.65-6.68,9.29-9.37c3.8-2.82,7.8-4.82,11.88-5.95
		c2.43-0.67,4.92-1.08,7.39-1.34c2.24-0.23,4.46-0.35,6.62-0.42c0.73-0.02,1.47-0.04,2.18-0.06c2.11-0.05,4.28-0.1,6.38-0.36
		c1.89-0.24,3.87-0.6,6.1-1.13l1.6,2.02c-2.75,0.68-5.14,1.14-7.41,1.43c-2.22,0.28-4.45,0.33-6.62,0.38
		c-0.71,0.02-1.44,0.03-2.15,0.06c-1.6,0.05-3.25,0.13-4.9,0.26c-2.87,0.23-5.78,0.64-8.57,1.41c-3.81,1.05-7.55,2.93-11.11,5.57
		c-3.44,2.55-6.39,5.53-8.78,8.86c-0.54,0.76-1.05,1.53-1.54,2.32c2.61-3.01,9.42-9.04,23.01-10.8c-0.21-0.13-0.43-0.25-0.65-0.37
		c-0.31-0.17-0.63-0.33-0.94-0.48l0.07-0.29c0.73,0.09,1.44,0.25,2.15,0.45c0.48,0.13,0.95,0.3,1.42,0.47
		c3.4-0.31,7.19-0.37,11.42-0.06c0,0,3.03,0.42,7.35,0.45c-0.13-0.11-0.25-0.23-0.38-0.33c-0.42-0.33-0.85-0.65-1.3-0.96
		c-0.25-0.17-0.5-0.34-0.76-0.5c-0.36-0.23-0.72-0.44-1.09-0.65c-0.37-0.21-0.75-0.41-1.13-0.58l0.08-0.29
		c0.87,0.14,1.71,0.39,2.55,0.68c0.21,0.07,0.41,0.15,0.62,0.23c0.2,0.08,0.41,0.16,0.61,0.25c0.41,0.17,0.81,0.36,1.21,0.56
		c0.19,0.1,0.38,0.2,0.57,0.3c0.2,0.11,0.41,0.22,0.61,0.34c0.19,0.11,0.38,0.23,0.57,0.35l0.57,0.36l0.28,0.2
		c8.12-0.29,18.87-2.2,24.02-9.58c-3.2-3.62-6.61-6.54-10.4-8.87c-4.42-2.73-9.24-4.61-14.71-5.73l1.31-3.26
		c11.17,2.3,19.63,7.71,27.17,16.61c0.01,0.01,0.02,0.02,0.03,0.04c2.89,0.34,8.02,0.63,13.43-0.53c-0.01-0.37-0.01-0.6-0.01-0.6
		c-0.01-0.12-0.01-0.24-0.01-0.35c-0.01-0.8,0.07-1.6,0.13-2.38c0.06-0.78,0.16-1.55,0.32-2.3c0.08-0.38,0.17-0.75,0.27-1.12
		c0.05-0.19,0.1-0.37,0.16-0.55c0.05-0.18,0.11-0.36,0.17-0.55c0.24-0.72,0.51-1.43,0.82-2.12c0.31-0.69,0.65-1.36,1.05-2l0.27,0.12
		c-0.09,0.35-0.17,0.71-0.24,1.07c-0.07,0.36-0.14,0.72-0.19,1.07c-0.11,0.72-0.2,1.43-0.25,2.15c-0.11,1.43-0.12,2.84,0.01,4.22
		c0.02,0.17,0.03,0.34,0.06,0.51c0.03,0.17,0.06,0.34,0.09,0.51c0.04,0.17,0.08,0.33,0.12,0.5c0.04,0.17,0.08,0.33,0.13,0.49
		c0.03,0.12,0.09,0.32,0.14,0.52c1.82-0.59,3.63-1.36,5.36-2.39c0,0,1.05-0.72,2.67-1.96c-0.07-0.37-0.14-0.76-0.21-1.28
		c-0.21-1.59-0.18-3.21,0.15-4.78c0.04-0.19,0.08-0.38,0.12-0.56c0.05-0.19,0.09-0.37,0.14-0.56l0.16-0.55l0.18-0.54l0.19-0.53
		c0.27-0.71,0.56-1.4,0.89-2.07c0.17-0.33,0.34-0.66,0.53-0.99c0.19-0.32,0.38-0.64,0.59-0.95l0.27,0.13
		c-0.1,0.35-0.19,0.7-0.27,1.05c-0.09,0.35-0.16,0.7-0.23,1.06c-0.14,0.71-0.26,1.41-0.33,2.12c-0.08,0.7-0.14,1.41-0.16,2.1
		c-0.01,0.17-0.01,0.35-0.01,0.52l0,0.26l0.01,0.26c0,0.34,0.02,0.68,0.04,1.02c0.06,0.8,0.19,1.58,0.43,2.34
		c3.39-2.75,7.79-6.66,11.11-10.86c0.06-0.08,0.12-0.17,0.18-0.25c0.08-0.1,0.16-0.19,0.24-0.29c0.13-0.17,0.27-0.35,0.39-0.52
		l0.05-0.02c2.46-3.09,5.3-5.89,8.52-8.35c-0.34,0.01-0.67,0.02-1.01,0.02C338.96,437.34,335.42,437.41,331.44,437.83z"/>
	<path class="st2" d="M264.03,435.63c-0.04,0.04-0.08,0.08-0.12,0.13c0.13,0.1,0.25,0.21,0.38,0.31c-0.06-0.18-0.12-0.35-0.19-0.53
		C264.08,435.57,264.04,435.61,264.03,435.63z"/>
	<path class="st2" d="M251.9,424.29c0.17,0.01,0.37-0.06,0.53-0.11c0.58-0.18,1.1-0.43,1.61-0.75c0.09-0.06,0.18-0.13,0.27-0.19
		l0.13-0.1l0.13-0.1c0.18-0.13,0.34-0.28,0.51-0.43l0.25-0.23l0.24-0.24l0.24-0.25l0.23-0.26c0.06-0.07,0.12-0.16,0.18-0.24
		c-3.08-4.1-6.33-7.53-8.9-10c-0.42-0.17-0.83-0.34-1.25-0.51C249.18,416.15,250.88,420.68,251.9,424.29z"/>
	<path class="st2" d="M257.01,423.11l-0.18,0.36c-0.07,0.12-0.13,0.24-0.2,0.36c-0.14,0.23-0.29,0.47-0.46,0.69l-0.12,0.17
		l-0.13,0.16c-0.09,0.11-0.17,0.22-0.27,0.32c-0.09,0.11-0.19,0.21-0.28,0.32c-0.54,0.65-1.21,1.26-1.95,1.68
		c-0.04,0.02-0.72,0.36-0.71,0.36c0.16,0.73,0.31,1.44,0.45,2.14c2.66,1.11,5.63,2.75,8,4.24c0,0,0.81-0.55,1.67-1.55
		c-1.56-3.47-3.53-6.73-5.64-9.68c-0.01,0.01-0.01,0.03-0.02,0.04L257.01,423.11z"/>
	<path class="st2" d="M234.47,451.09c-0.81,0.43-1.62,0.87-2.47,1.24c-0.42,0.18-0.86,0.33-1.3,0.45c-0.09,0.02-0.17,0.04-0.26,0.06
		c2.11,1.87,4.56,3.51,7.59,4.81c0.18,0.08,0.35,0.13,0.48,0.17c0.81-0.37,1.63-0.71,2.46-1.02c0.44-0.17,0.89-0.32,1.34-0.47
		c0.79-0.26,1.59-0.49,2.4-0.7c-3.08-1.25-5.96-3.68-8.14-5.89C235.91,450.24,235.2,450.69,234.47,451.09z"/>
	<path class="st2" d="M228.48,441.43c-0.13,0.11-0.27,0.2-0.41,0.31c-0.27,0.2-0.56,0.39-0.85,0.57c-0.29,0.17-0.59,0.35-0.89,0.51
		c-0.6,0.32-1.21,0.68-1.85,0.97c-0.32,0.14-0.65,0.26-0.99,0.34c-0.08,0.02-0.17,0.04-0.26,0.06c-0.06,0.01-0.13,0.02-0.2,0.03
		c1.43,1.97,2.87,3.88,4.46,5.67c0.07,0.01,1.18,0.19,2.29-0.07c0.05-0.01,0.09-0.02,0.14-0.03c0.39-0.1,0.79-0.18,1.19-0.25
		c0.8-0.15,1.6-0.31,2.36-0.59c0.38-0.14,0.75-0.29,1.12-0.45c0.18-0.08,0.36-0.17,0.54-0.26c-1.57-1.74-2.52-3.07-2.52-3.07
		c-0.88-1.51-2.32-2.98-3.63-4.15c-0.04,0.04-0.08,0.07-0.12,0.11L228.48,441.43z"/>
	<path class="st2" d="M218.72,438.41c0.54,0.68,1.07,1.37,1.58,2.05c0,0,0.98,0.85,4.27,0.38c0.28-0.05,0.57-0.11,0.84-0.2
		c0.29-0.08,0.57-0.19,0.85-0.28c0.28-0.11,0.56-0.21,0.84-0.33c0.16-0.06,0.31-0.15,0.47-0.22c-0.93-0.74-1.6-1.19-1.6-1.19
		c-4.88-4.18-10.8-5.99-14.27-6.74c-0.01,0-0.03,0-0.04,0C214.45,433.91,216.96,436.21,218.72,438.41z"/>
	<path class="st2" d="M324.54,459.66c0.03,0.05,0.34,0.55,0.47,0.66c2.31-2.42,4.07-5.19,5.92-8.09c1.17-1.84,2.39-3.74,3.77-5.58
		c-3.32,4.2-7.72,8.12-11.11,10.86c0.01,0.04,0.02,0.07,0.03,0.11C323.86,458.36,324.13,458.9,324.54,459.66z"/>
	<path class="st2" d="M314.59,467.51c2.34-1.06,5.33-2.43,7.53-4.68c-0.13-0.32-0.52-1.35-0.61-1.68c-0.19-0.7-0.31-1.17-0.41-1.68
		c-1.63,1.24-2.67,1.96-2.67,1.96c-1.73,1.02-3.54,1.8-5.36,2.39c0.05,0.16,0.09,0.32,0.11,0.41
		C313.66,465.82,314.14,467.01,314.59,467.51z"/>
	<path class="st2" d="M269.99,476.56c0.18,0.14,0.35,0.28,0.53,0.42c0.17,0.14,0.35,0.29,0.52,0.44l0.51,0.45l0.51,0.46
		c0.17,0.15,0.33,0.31,0.5,0.47c0.17,0.16,0.33,0.32,0.49,0.49c0.35,0.35,0.66,0.74,0.93,1.15c0,0,1.36,1.83,1.85,3.2
		c4.68-0.49,8.66-1.49,11.81-2.96c3.96-1.85,6.59-4.45,7.84-7.74c0.05-0.13,0.16-0.49,0.4-1.43c0.07-0.25,0.14-0.55,0.23-0.89
		l0.1-0.49c-0.59-0.81-1.2-1.6-1.84-2.37c-0.39-0.47-0.78-0.92-1.17-1.36c-5.15,7.38-15.9,9.28-24.02,9.58l0.27,0.19
		C269.64,476.29,269.81,476.43,269.99,476.56z"/>
	<path class="st2" d="M300.31,470.13c0.05,0.07,0.09,0.14,0.14,0.21c2.07,0.01,4.1-0.15,6.09-0.48c1.39-0.23,2.76-0.55,4.11-0.95
		c-0.49-1.18-0.6-3.25-0.62-4.27c-5.42,1.17-10.55,0.87-13.43,0.53c0.12,0.15,0.25,0.29,0.37,0.44
		C298.16,467.05,299.28,468.56,300.31,470.13z"/>
	<path class="st2" d="M335.11,446.12c0.14-0.18,0.3-0.36,0.44-0.54l-0.05,0.02C335.38,445.77,335.25,445.94,335.11,446.12z"/>
	<path class="st2" d="M248.59,476.09l0.51,0.23c0.17,0.08,0.33,0.17,0.5,0.25c0.17,0.08,0.33,0.18,0.49,0.26
		c0.16,0.09,0.32,0.19,0.49,0.28l0.24,0.14l0.24,0.15c0.32,0.2,0.63,0.42,0.94,0.64c0.61,0.45,1.24,0.89,1.84,1.38
		c0.23,0.2,0.44,0.41,0.65,0.63c0,0,1.07,0.91,1.78,1.81c1.02,0.09,2.04,0.19,3.06,0.31c1.56,0.18,3.14,0.43,4.66,0.66
		c2.67,0.41,5.25,0.81,7.81,0.92c-0.05-0.87-0.73-2.16-0.73-2.16c-0.11-0.17-0.22-0.34-0.32-0.51c-0.42-0.68-0.85-1.38-1.38-2
		c-0.95-1.11-2.02-2.14-3.17-3.09c-4.32-0.03-7.35-0.45-7.35-0.45c-4.23-0.31-8.01-0.26-11.42,0.06c0.22,0.08,0.45,0.16,0.67,0.25
		L248.59,476.09z"/>
	<path class="st2" d="M244.5,481.57c2.3-0.09,4.65-0.09,7.02,0c-0.1-0.44-0.45-0.99-0.46-1c-0.19-0.25-0.4-0.5-0.62-0.73
		c-0.24-0.24-0.47-0.48-0.72-0.71l-0.18-0.18l-0.19-0.17c-0.13-0.11-0.25-0.23-0.38-0.34c-0.13-0.11-0.26-0.23-0.39-0.33l-0.4-0.33
		l-0.41-0.32l-0.42-0.31c-0.56-0.42-1.14-0.8-1.74-1.16c-0.09-0.05-0.18-0.1-0.27-0.15c-13.59,1.76-20.4,7.79-23.01,10.8
		c1.9-0.91,3.9-1.69,5.98-2.36C233.24,482.71,238.68,481.8,244.5,481.57z"/>
	<path class="st4" d="M334.87,446.41c-0.06,0.08-0.12,0.17-0.18,0.25c0.14-0.18,0.28-0.36,0.42-0.54
		C335.04,446.22,334.95,446.31,334.87,446.41z"/>
	<path class="st4" d="M218.17,478.8l-1.06,0.76l0.66,0.24c0.13-0.33,0.26-0.65,0.4-0.97L218.17,478.8z"/>
	<path class="st4" d="M218.17,478.82c-0.14,0.32-0.27,0.65-0.4,0.97l0.17,0.06L218.17,478.82z"/>
</g>
</svg>
